<svg width="37" height="37" viewBox="0 0 37 37" fill="none" xmlns="http://www.w3.org/2000/svg">
<path d="M24.1939 28.5439C24.5109 28.861 24.689 29.2909 24.689 29.7393C24.689 30.1876 24.5109 30.6176 24.1939 30.9346C23.8769 31.2516 23.4469 31.4297 22.9986 31.4297C22.5503 31.4297 22.1203 31.2516 21.8033 30.9346L10.5533 19.6846C10.396 19.5278 10.2711 19.3415 10.186 19.1364C10.1008 18.9313 10.0569 18.7114 10.0569 18.4893C10.0569 18.2672 10.1008 18.0472 10.186 17.8421C10.2711 17.637 10.396 17.4507 10.5533 17.2939L21.8033 6.04394C22.1203 5.72693 22.5503 5.54883 22.9986 5.54883C23.4469 5.54883 23.8769 5.72693 24.1939 6.04394C24.5109 6.36096 24.689 6.79093 24.689 7.23925C24.689 7.68758 24.5109 8.11755 24.1939 8.43457L14.1406 18.4878L24.1939 28.5439Z" fill="#6100FF"/>
</svg>
