<svg width="40" height="39" viewBox="0 0 40 39" fill="none" xmlns="http://www.w3.org/2000/svg">
<path d="M38.7381 18.2619C38.9008 18.4244 39.0299 18.6174 39.118 18.8299C39.206 19.0423 39.2514 19.27 39.2514 19.5C39.2514 19.73 39.206 19.9577 39.118 20.1701C39.0299 20.3826 38.9008 20.5756 38.7381 20.7381L21.2381 38.2381C21.0756 38.4008 20.8826 38.5299 20.6701 38.618C20.4577 38.706 20.23 38.7514 20 38.7514C19.77 38.7514 19.5423 38.706 19.3299 38.618C19.1174 38.5299 18.9244 38.4008 18.7619 38.2381L1.26187 20.7381C0.9335 20.4098 0.749023 19.9644 0.749023 19.5C0.749023 19.0356 0.9335 18.5902 1.26187 18.2619C1.59024 17.9335 2.03561 17.749 2.5 17.749C2.96438 17.749 3.40975 17.9335 3.73812 18.2619L20 34.5259L36.2619 18.2619C36.4244 18.0992 36.6174 17.9701 36.8298 17.882C37.0423 17.7939 37.27 17.7486 37.5 17.7486C37.73 17.7486 37.9577 17.7939 38.1701 17.882C38.3826 17.9701 38.5756 18.0992 38.7381 18.2619ZM18.7619 20.7381C18.9244 20.9008 19.1174 21.0299 19.3299 21.118C19.5423 21.206 19.77 21.2514 20 21.2514C20.23 21.2514 20.4577 21.206 20.6701 21.118C20.8826 21.0299 21.0756 20.9008 21.2381 20.7381L38.7381 3.23812C39.0665 2.90975 39.251 2.46438 39.251 2C39.251 1.53561 39.0665 1.09024 38.7381 0.761871C38.4098 0.4335 37.9644 0.249023 37.5 0.249023C37.0356 0.249023 36.5902 0.4335 36.2619 0.761871L20 17.0259L3.73812 0.761871C3.40975 0.4335 2.96438 0.249023 2.5 0.249023C2.03561 0.249023 1.59024 0.4335 1.26187 0.761871C0.9335 1.09024 0.749023 1.53561 0.749023 2C0.749023 2.46438 0.9335 2.90975 1.26187 3.23812L18.7619 20.7381Z" fill="#6100FF"/>
</svg>
