<svg width="76" height="76" viewBox="0 0 76 76" fill="none" xmlns="http://www.w3.org/2000/svg">
<g filter="url(#filter0_b_278_46340)">
<rect width="76" height="76" rx="38" fill="white" fill-opacity="0.1"/>
<rect x="0.730769" y="0.730769" width="74.5385" height="74.5385" rx="37.2692" stroke="#6100FF" stroke-width="1.46154"/>
<path d="M48.0612 25.5613C47.9218 25.7011 47.7563 25.8121 47.5739 25.8878C47.3916 25.9635 47.1961 26.0025 46.9987 26.0025C46.8013 26.0025 46.6058 25.9635 46.4235 25.8878C46.2411 25.8121 46.0756 25.7011 45.9362 25.5613L39.4999 19.1251V37.5C39.4999 37.8979 39.3419 38.2794 39.0606 38.5607C38.7793 38.842 38.3978 39 37.9999 39C37.6021 39 37.2206 38.842 36.9393 38.5607C36.658 38.2794 36.4999 37.8979 36.4999 37.5V19.1251L30.0612 25.5613C29.7794 25.8431 29.3972 26.0014 28.9987 26.0014C28.6002 26.0014 28.218 25.8431 27.9362 25.5613C27.6544 25.2795 27.4961 24.8973 27.4961 24.4988C27.4961 24.1003 27.6544 23.7181 27.9362 23.4363L36.9362 14.4363C37.0756 14.2965 37.2411 14.1855 37.4235 14.1098C37.6058 14.0341 37.8013 13.9951 37.9987 13.9951C38.1961 13.9951 38.3916 14.0341 38.5739 14.1098C38.7563 14.1855 38.9218 14.2965 39.0612 14.4363L48.0612 23.4363C48.201 23.5757 48.312 23.7412 48.3877 23.9236C48.4634 24.1059 48.5024 24.3014 48.5024 24.4988C48.5024 24.6962 48.4634 24.8917 48.3877 25.074C48.312 25.2564 48.201 25.4219 48.0612 25.5613Z" fill="#6100FF"/>
<path d="M26.4785 54.9062V53.7727H33.2327V54.9062H30.5097V62.5H29.1972V54.9062H26.4785ZM41.8113 58.1364C41.8113 59.0682 41.6408 59.8693 41.2999 60.5398C40.959 61.2074 40.4917 61.7216 39.8979 62.0824C39.307 62.4403 38.6351 62.6193 37.8823 62.6193C37.1266 62.6193 36.4519 62.4403 35.8581 62.0824C35.2672 61.7216 34.8013 61.206 34.4604 60.5355C34.1195 59.8651 33.949 59.0653 33.949 58.1364C33.949 57.2045 34.1195 56.4048 34.4604 55.7372C34.8013 55.0668 35.2672 54.5526 35.8581 54.1946C36.4519 53.8338 37.1266 53.6534 37.8823 53.6534C38.6351 53.6534 39.307 53.8338 39.8979 54.1946C40.4917 54.5526 40.959 55.0668 41.2999 55.7372C41.6408 56.4048 41.8113 57.2045 41.8113 58.1364ZM40.5073 58.1364C40.5073 57.4261 40.3922 56.8281 40.1621 56.3423C39.9348 55.8537 39.6223 55.4844 39.2246 55.2344C38.8297 54.9815 38.3823 54.8551 37.8823 54.8551C37.3794 54.8551 36.9306 54.9815 36.5357 55.2344C36.1408 55.4844 35.8283 55.8537 35.5982 56.3423C35.3709 56.8281 35.2573 57.4261 35.2573 58.1364C35.2573 58.8466 35.3709 59.446 35.5982 59.9347C35.8283 60.4205 36.1408 60.7898 36.5357 61.0426C36.9306 61.2926 37.3794 61.4176 37.8823 61.4176C38.3823 61.4176 38.8297 61.2926 39.2246 61.0426C39.6223 60.7898 39.9348 60.4205 40.1621 59.9347C40.3922 59.446 40.5073 58.8466 40.5073 58.1364ZM43.3329 62.5V53.7727H46.4437C47.1227 53.7727 47.6852 53.8963 48.1312 54.1435C48.5773 54.3906 48.9111 54.7287 49.1327 55.1577C49.3543 55.5838 49.4651 56.0639 49.4651 56.598C49.4651 57.1349 49.3528 57.6179 49.1284 58.0469C48.9068 58.473 48.5716 58.8111 48.1227 59.0611C47.6767 59.3082 47.1156 59.4318 46.4395 59.4318H44.3003V58.3153H46.3202C46.7491 58.3153 47.0972 58.2415 47.3642 58.0938C47.6312 57.9432 47.8273 57.7386 47.9523 57.4801C48.0773 57.2216 48.1398 56.9276 48.1398 56.598C48.1398 56.2685 48.0773 55.9759 47.9523 55.7202C47.8273 55.4645 47.6298 55.2642 47.3599 55.1193C47.0929 54.9744 46.7406 54.902 46.3031 54.902H44.6497V62.5H43.3329Z" fill="#6100FF"/>
</g>
<defs>
<filter id="filter0_b_278_46340" x="-20" y="-20" width="116" height="116" filterUnits="userSpaceOnUse" color-interpolation-filters="sRGB">
<feFlood flood-opacity="0" result="BackgroundImageFix"/>
<feGaussianBlur in="BackgroundImageFix" stdDeviation="10"/>
<feComposite in2="SourceAlpha" operator="in" result="effect1_backgroundBlur_278_46340"/>
<feBlend mode="normal" in="SourceGraphic" in2="effect1_backgroundBlur_278_46340" result="shape"/>
</filter>
</defs>
</svg>
