<svg width="1920" height="1079" viewBox="0 0 1920 1079" fill="none" xmlns="http://www.w3.org/2000/svg">
<path d="M2887.5 512C2887.5 590.039 2833.72 664.49 2736.2 732.292C2638.7 800.083 2497.59 861.154 2323.16 912.45C1974.32 1015.04 1492.37 1078.5 960 1078.5C427.632 1078.5 -54.3187 1015.04 -403.161 912.45C-577.585 861.154 -718.703 800.083 -816.203 732.292C-913.718 664.49 -967.5 590.039 -967.5 512C-967.5 433.961 -913.718 359.511 -816.203 291.709C-718.703 223.917 -577.585 162.846 -403.161 111.55C-54.3187 8.96022 427.632 -54.5 960 -54.5C1492.37 -54.5 1974.32 8.96022 2323.16 111.55C2497.59 162.846 2638.7 223.917 2736.2 291.709C2833.72 359.511 2887.5 433.961 2887.5 512Z" stroke="#F2EBFF"/>
<path d="M2809.01 512C2809.01 586.852 2757.42 658.266 2663.88 723.306C2570.35 788.336 2434.98 846.92 2267.66 896.127C1933.02 994.539 1470.69 1055.42 960.001 1055.42C449.308 1055.42 -13.0192 994.539 -347.656 896.127C-514.978 846.92 -650.348 788.336 -743.877 723.306C-837.419 658.266 -889.005 586.852 -889.005 512C-889.005 437.148 -837.419 365.734 -743.877 300.694C-650.348 235.664 -514.978 177.08 -347.656 127.873C-13.0192 29.4604 449.308 -31.416 960.001 -31.416C1470.69 -31.416 1933.02 29.4604 2267.66 127.873C2434.98 177.08 2570.35 235.664 2663.88 300.694C2757.42 365.734 2809.01 437.148 2809.01 512Z" stroke="#F2EBFF"/>
<path d="M2731.12 512C2731.12 583.69 2681.72 652.091 2592.11 714.391C2502.53 776.681 2372.86 832.796 2212.59 879.931C1892.04 974.199 1449.19 1032.51 960 1032.51C470.815 1032.51 27.9589 974.199 -292.584 879.931C-452.859 832.796 -582.526 776.681 -672.113 714.391C-761.715 652.091 -811.121 583.69 -811.121 512C-811.121 440.311 -761.715 371.91 -672.113 309.61C-582.526 247.32 -452.859 191.204 -292.584 144.07C27.9589 49.802 470.815 -8.51074 960 -8.51074C1449.19 -8.51074 1892.04 49.802 2212.59 144.07C2372.86 191.204 2502.53 247.32 2592.11 309.61C2681.72 371.91 2731.12 440.311 2731.12 512Z" stroke="#F2EBFF"/>
<path d="M2648.68 512C2648.68 580.342 2601.58 645.554 2516.15 704.953C2430.73 764.342 2307.1 817.846 2154.29 862.787C1848.67 952.667 1426.42 1008.27 960.001 1008.27C493.581 1008.27 71.3361 952.667 -234.288 862.787C-387.103 817.846 -510.733 764.342 -596.148 704.953C-681.578 645.554 -728.678 580.342 -728.678 512C-728.678 443.658 -681.578 378.446 -596.148 319.047C-510.733 259.658 -387.103 206.154 -234.288 161.213C71.3361 71.3333 493.581 15.7344 960.001 15.7344C1426.42 15.7344 1848.67 71.3333 2154.29 161.213C2307.1 206.154 2430.73 259.658 2516.15 319.047C2601.58 378.446 2648.68 443.658 2648.68 512Z" stroke="#F2EBFF"/>
<path d="M2566.44 512C2566.44 577.002 2521.64 639.033 2440.37 695.538C2359.12 752.034 2241.51 802.932 2096.13 845.684C1805.39 931.187 1403.71 984.079 960 984.079C516.291 984.079 114.607 931.187 -176.134 845.684C-321.508 802.932 -439.116 752.034 -520.369 695.538C-601.637 639.033 -646.436 577.002 -646.436 512C-646.436 446.997 -601.637 384.967 -520.369 328.461C-439.116 271.966 -321.508 221.068 -176.134 178.316C114.607 92.8127 516.291 39.9209 960 39.9209C1403.71 39.9209 1805.39 92.8127 2096.13 178.316C2241.51 221.068 2359.12 271.966 2440.37 328.461C2521.64 384.967 2566.44 446.997 2566.44 512Z" stroke="#F2EBFF"/>
<path d="M2484.19 512C2484.19 573.663 2441.7 632.512 2364.59 686.124C2287.5 739.726 2175.91 788.018 2037.98 828.582C1762.12 909.708 1381 959.893 960.001 959.893C539.003 959.893 157.879 909.708 -117.979 828.582C-255.911 788.018 -367.497 739.726 -444.589 686.124C-521.695 632.512 -564.192 573.663 -564.192 512C-564.192 450.337 -521.695 391.488 -444.589 337.876C-367.497 284.274 -255.911 235.982 -117.979 195.418C157.879 114.292 539.003 64.1074 960.001 64.1074C1381 64.1074 1762.12 114.292 2037.98 195.418C2175.91 235.982 2287.5 284.274 2364.59 337.876C2441.7 391.488 2484.19 450.337 2484.19 512Z" stroke="#F2EBFF"/>
<path d="M2401.95 512C2401.95 570.324 2361.76 625.991 2288.81 676.71C2215.88 727.418 2110.32 773.104 1979.83 811.479C1718.85 888.229 1358.29 935.706 960.001 935.706C561.713 935.706 201.151 888.229 -59.8242 811.479C-190.315 773.104 -295.879 727.418 -368.809 676.71C-441.754 625.991 -481.949 570.324 -481.949 512C-481.949 453.676 -441.754 398.009 -368.809 347.29C-295.879 296.582 -190.315 250.896 -59.8242 212.521C201.151 135.771 561.713 88.2939 960.001 88.2939C1358.29 88.2939 1718.85 135.771 1979.83 212.521C2110.32 250.896 2215.88 296.582 2288.81 347.29C2361.76 398.009 2401.95 453.676 2401.95 512Z" stroke="#F2EBFF"/>
<path d="M2319.71 512C2319.71 566.984 2281.81 619.47 2213.03 667.295C2144.26 715.11 2044.72 758.189 1921.67 794.377C1675.58 866.749 1335.58 911.519 960 911.519C584.424 911.519 244.422 866.749 -1.67007 794.377C-124.719 758.189 -224.261 715.11 -293.029 667.295C-361.812 619.47 -399.707 566.984 -399.707 512C-399.707 457.016 -361.812 404.53 -293.029 356.705C-224.261 308.89 -124.719 265.81 -1.67007 229.623C244.422 157.251 584.424 112.48 960 112.48C1335.58 112.48 1675.58 157.251 1921.67 229.623C2044.72 265.81 2144.26 308.89 2213.03 356.705C2281.81 404.53 2319.71 457.016 2319.71 512Z" stroke="#F2EBFF"/>
<path d="M2237.47 512.001C2237.47 563.646 2201.87 612.95 2137.25 657.882C2072.64 702.803 1979.12 743.277 1863.52 777.275C1632.31 845.271 1312.87 887.334 960.001 887.334C607.134 887.334 287.693 845.271 56.4844 777.275C-59.1233 743.277 -152.643 702.803 -217.25 657.882C-281.871 612.95 -317.464 563.646 -317.464 512.001C-317.464 460.356 -281.871 411.052 -217.25 366.12C-152.643 321.199 -59.1233 280.725 56.4844 246.727C287.693 178.731 607.134 136.668 960.001 136.668C1312.87 136.668 1632.31 178.731 1863.52 246.727C1979.12 280.725 2072.64 321.199 2137.25 366.12C2201.87 411.052 2237.47 460.356 2237.47 512.001Z" stroke="#F2EBFF"/>
<path d="M2155.22 512.001C2155.22 560.306 2121.93 606.429 2061.47 648.467C2001.03 690.494 1913.53 728.362 1805.36 760.173C1589.04 823.791 1290.16 863.147 960 863.147C629.845 863.147 330.964 823.791 114.639 760.173C6.47255 728.362 -81.0251 690.494 -141.47 648.467C-201.93 606.429 -235.221 560.306 -235.221 512.001C-235.221 463.696 -201.93 417.572 -141.47 375.535C-81.0251 333.507 6.47255 295.639 114.639 263.829C330.964 200.21 629.845 160.854 960 160.854C1290.16 160.854 1589.04 200.21 1805.36 263.829C1913.53 295.639 2001.03 333.507 2061.47 375.535C2121.93 417.572 2155.22 463.696 2155.22 512.001Z" stroke="#F2EBFF"/>
<path d="M2079.31 512C2079.31 557.223 2048.14 600.409 1991.52 639.776C1934.92 679.132 1852.98 714.595 1751.68 744.385C1549.09 803.964 1269.19 840.82 960 840.82C650.809 840.82 370.907 803.964 168.319 744.385C67.0223 714.595 -14.9166 679.132 -71.5199 639.776C-128.138 600.409 -159.305 557.223 -159.305 512C-159.305 466.777 -128.138 423.591 -71.5199 384.224C-14.9166 344.868 67.0223 309.405 168.319 279.615C370.907 220.037 650.809 183.18 960 183.18C1269.19 183.18 1549.09 220.037 1751.68 279.615C1852.98 309.405 1934.92 344.868 1991.52 384.224C2048.14 423.591 2079.31 466.777 2079.31 512Z" stroke="#F2EBFF"/>
<path d="M1990.74 512C1990.74 553.626 1962.05 593.387 1909.91 629.637C1857.79 665.877 1782.34 698.534 1689.05 725.967C1502.49 780.832 1244.73 814.773 960 814.773C675.266 814.773 417.506 780.832 230.947 725.967C137.663 698.534 62.2098 665.877 10.0883 629.637C-42.0479 593.387 -70.7368 553.626 -70.7368 512C-70.7368 470.374 -42.0479 430.613 10.0883 394.363C62.2098 358.123 137.663 325.466 230.947 298.033C417.506 243.168 675.266 209.227 960 209.227C1244.73 209.227 1502.49 243.168 1689.05 298.033C1782.34 325.466 1857.79 358.123 1909.91 394.363C1962.05 430.613 1990.74 470.374 1990.74 512Z" stroke="#F2EBFF"/>
<path d="M1908.49 512.001C1908.49 550.288 1882.11 586.867 1834.13 620.224C1786.17 653.57 1716.74 683.621 1630.9 708.866C1459.22 759.354 1222.02 790.588 960 790.588C697.976 790.588 460.777 759.354 289.1 708.866C203.259 683.621 133.827 653.57 85.8675 620.224C37.893 586.867 11.5054 550.288 11.5054 512.001C11.5054 473.714 37.893 437.135 85.8675 403.778C133.827 370.432 203.259 340.381 289.1 315.136C460.777 264.649 697.976 233.414 960 233.414C1222.02 233.414 1459.22 264.649 1630.9 315.136C1716.74 340.381 1786.17 370.432 1834.13 403.778C1882.11 437.135 1908.49 473.714 1908.49 512.001Z" stroke="#F2EBFF"/>
<path d="M1826.25 512.001C1826.25 546.948 1802.17 580.346 1758.35 610.809C1714.55 641.262 1651.15 668.707 1572.75 691.763C1415.95 737.874 1199.31 766.402 960.001 766.402C720.688 766.402 504.049 737.874 347.256 691.763C268.856 668.707 205.446 641.262 161.648 610.809C117.835 580.346 93.749 546.948 93.749 512.001C93.749 477.054 117.835 443.656 161.648 413.193C205.446 382.74 268.856 355.295 347.256 332.239C504.049 286.128 720.688 257.601 960.001 257.601C1199.31 257.601 1415.95 286.128 1572.75 332.239C1651.15 355.295 1714.55 382.74 1758.35 413.193C1802.17 443.656 1826.25 477.054 1826.25 512.001Z" stroke="#F2EBFF"/>
<path d="M1737.68 512.001C1737.68 543.352 1716.07 573.324 1676.74 600.671C1637.43 628.007 1580.5 652.645 1510.12 673.345C1369.35 714.743 1174.86 740.354 960 740.354C745.145 740.354 550.649 714.743 409.883 673.345C339.497 652.645 282.573 628.007 243.256 600.671C203.925 573.324 182.317 543.352 182.317 512.001C182.317 480.65 203.925 450.678 243.256 423.331C282.573 395.995 339.497 371.356 409.883 350.657C550.649 309.259 745.145 283.647 960 283.647C1174.86 283.647 1369.35 309.259 1510.12 350.657C1580.5 371.356 1637.43 395.995 1676.74 423.331C1716.07 450.678 1737.68 480.65 1737.68 512.001Z" stroke="#F2EBFF"/>
<path d="M1655.44 512.001C1655.44 540.013 1636.13 566.803 1600.96 591.256C1565.81 615.699 1514.91 637.732 1451.96 656.243C1326.08 693.263 1152.14 716.168 960 716.168C767.856 716.168 593.92 693.263 468.037 656.243C405.093 637.732 354.19 615.699 319.036 591.256C283.867 566.803 264.56 540.013 264.56 512.001C264.56 483.989 283.867 457.199 319.036 432.746C354.19 408.303 405.093 386.271 468.037 367.759C593.92 330.739 767.856 307.834 960 307.834C1152.14 307.834 1326.08 330.739 1451.96 367.759C1514.91 386.271 1565.81 408.303 1600.96 432.746C1636.13 457.199 1655.44 483.989 1655.44 512.001Z" stroke="#F2EBFF"/>
<path d="M1573.4 512.001C1573.4 536.681 1556.38 560.298 1525.37 581.864C1494.36 603.421 1449.47 622.854 1393.95 639.182C1282.91 671.836 1129.49 692.04 959.999 692.04C790.51 692.04 637.086 671.836 526.05 639.182C470.528 622.854 425.634 603.421 394.631 581.864C363.613 560.298 346.603 536.681 346.603 512.001C346.603 487.321 363.613 463.704 394.631 442.138C425.634 420.581 470.528 401.148 526.05 384.82C637.086 352.166 790.51 331.962 959.999 331.962C1129.49 331.962 1282.91 352.166 1393.95 384.82C1449.47 401.148 1494.36 420.581 1525.37 442.138C1556.38 463.704 1573.4 487.321 1573.4 512.001Z" stroke="#F2EBFF"/>
<path d="M1490.95 512.001C1490.95 533.334 1476.25 553.761 1449.4 572.427C1422.57 591.083 1383.72 607.904 1335.65 622.038C1239.54 650.305 1106.72 667.795 960 667.795C813.277 667.795 680.463 650.305 584.346 622.038C536.284 607.904 497.426 591.083 470.595 572.427C443.749 553.761 429.045 533.334 429.045 512.001C429.045 490.668 443.749 470.241 470.595 451.575C497.426 432.919 536.284 416.099 584.346 401.964C680.463 373.697 813.277 356.207 960 356.207C1106.72 356.207 1239.54 373.697 1335.65 401.964C1383.72 416.099 1422.57 432.919 1449.4 451.575C1476.25 470.241 1490.95 490.668 1490.95 512.001Z" stroke="#F2EBFF"/>
<path d="M1408.91 512.001C1408.91 530.002 1396.5 547.256 1373.81 563.035C1351.13 578.804 1318.28 593.025 1277.64 604.977C1196.37 628.877 1084.07 643.667 960.001 643.667C835.933 643.667 723.63 628.877 642.36 604.977C601.722 593.025 568.872 578.804 546.192 563.035C523.498 547.256 511.09 530.002 511.09 512.001C511.09 494 523.498 476.746 546.192 460.966C568.872 445.197 601.722 430.976 642.36 419.025C723.63 395.125 835.933 380.335 960.001 380.335C1084.07 380.335 1196.37 395.125 1277.64 419.025C1318.28 430.976 1351.13 445.197 1373.81 460.966C1396.5 476.746 1408.91 494 1408.91 512.001Z" stroke="#F2EBFF"/>
<path d="M1326.47 512.001C1326.47 526.655 1316.37 540.72 1297.84 553.598C1279.34 566.467 1252.52 578.076 1219.34 587.833C1152.99 607.346 1061.3 619.422 959.999 619.422C858.697 619.422 767.004 607.346 700.653 587.833C667.474 578.076 640.661 566.467 622.153 553.598C603.631 540.72 593.529 526.655 593.529 512.001C593.529 497.347 603.631 483.283 622.153 470.404C640.661 457.535 667.474 445.927 700.653 436.169C767.004 416.656 858.697 404.58 959.999 404.58C1061.3 404.58 1152.99 416.656 1219.34 436.169C1252.52 445.927 1279.34 457.535 1297.84 470.404C1316.37 483.283 1326.47 497.347 1326.47 512.001Z" stroke="#F2EBFF"/>
<path d="M1256.88 512.001C1256.88 523.829 1248.72 535.201 1233.72 545.632C1218.74 556.052 1197.02 565.456 1170.14 573.361C1116.38 589.171 1042.08 598.956 959.999 598.956C877.914 598.956 803.618 589.171 749.861 573.361C722.979 565.456 701.26 556.052 686.274 545.632C671.273 535.201 663.119 523.829 663.119 512.001C663.119 500.172 671.273 488.8 686.274 478.369C701.26 467.949 722.979 458.545 749.861 450.64C803.618 434.83 877.914 425.045 959.999 425.045C1042.08 425.045 1116.38 434.83 1170.14 450.64C1197.02 458.545 1218.74 467.949 1233.72 478.369C1248.72 488.8 1256.88 500.172 1256.88 512.001Z" stroke="#F2EBFF"/>
<path d="M1174.64 512.001C1174.64 520.489 1168.78 528.681 1157.94 536.217C1147.12 543.744 1131.42 550.542 1111.98 556.259C1073.11 567.691 1019.37 574.77 959.998 574.77C900.624 574.77 846.889 567.691 808.015 556.259C788.574 550.542 772.878 543.744 762.053 536.217C751.214 528.681 745.361 520.489 745.361 512.001C745.361 503.512 751.214 495.32 762.053 487.784C772.878 480.258 788.574 473.459 808.015 467.742C846.889 456.31 900.624 449.231 959.998 449.231C1019.37 449.231 1073.11 456.31 1111.98 467.742C1131.42 473.459 1147.12 480.258 1157.94 487.784C1168.78 495.32 1174.64 503.512 1174.64 512.001Z" stroke="#F2EBFF"/>
<path d="M1105.05 512.001C1105.05 517.664 1101.14 523.163 1093.82 528.251C1086.52 533.329 1075.92 537.922 1062.77 541.788C1036.49 549.517 1000.16 554.304 959.998 554.304C919.841 554.304 883.503 549.517 857.222 541.788C844.078 537.922 833.478 533.329 826.174 528.251C818.857 523.163 814.951 517.664 814.951 512.001C814.951 506.338 818.857 500.838 826.174 495.75C833.478 490.672 844.078 486.079 857.222 482.214C883.503 474.485 919.841 469.697 959.998 469.697C1000.16 469.697 1036.49 474.485 1062.77 482.214C1075.92 486.079 1086.52 490.672 1093.82 495.75C1101.14 500.838 1105.05 506.338 1105.05 512.001Z" stroke="#F2EBFF"/>
<path d="M1042.08 512.001C1042.08 515.083 1039.94 518.126 1035.81 520.98C1031.69 523.824 1025.7 526.404 1018.25 528.58C1003.37 532.929 982.77 535.626 959.998 535.626C937.227 535.626 916.631 532.929 901.743 528.58C894.296 526.404 888.306 523.824 884.189 520.98C880.057 518.126 877.915 515.083 877.915 512.001C877.915 508.919 880.057 505.876 884.189 503.022C888.306 500.178 894.296 497.597 901.743 495.422C916.631 491.073 937.227 488.376 959.998 488.376C982.77 488.376 1003.37 491.073 1018.25 495.422C1025.7 497.597 1031.69 500.178 1035.81 503.022C1039.94 505.876 1042.08 508.919 1042.08 512.001Z" stroke="#F2EBFF"/>
</svg>