<svg width="278" height="279" viewBox="0 0 278 279" fill="none" xmlns="http://www.w3.org/2000/svg">
<path fill-rule="evenodd" clip-rule="evenodd" d="M3.07087 144.981C-0.0495232 141.853 -0.0495248 136.782 3.07087 133.654L133.6 2.80707C136.72 -0.320915 141.779 -0.320919 144.9 2.80707L275.428 133.654C278.549 136.782 278.549 141.853 275.428 144.981L144.9 275.828C141.779 278.956 136.72 278.956 133.6 275.828L3.07087 144.981ZM4.48118 133.654C1.36079 136.782 1.3608 141.853 4.48119 144.981L133.6 274.414C136.72 277.542 141.779 277.542 144.9 274.414L274.018 144.981C277.138 141.853 277.138 136.782 274.018 133.654L144.9 4.22082C141.779 1.09283 136.72 1.09284 133.6 4.22084L4.48118 133.654Z" fill="#6100FF"/>
</svg>
