<svg width="104" height="201" viewBox="0 0 104 201" fill="none" xmlns="http://www.w3.org/2000/svg">
<path fill-rule="evenodd" clip-rule="evenodd" d="M0.927734 8C0.927734 3.58172 4.50945 0 8.92773 0H193.504C197.923 0 201.504 3.58172 201.504 8V192.804C201.504 197.222 197.923 200.804 193.504 200.804H8.92773C4.50946 200.804 0.927734 197.222 0.927734 192.804V8ZM9.92563 0.999022C5.50735 0.999022 1.92563 4.58073 1.92563 8.99901V191.804C1.92563 196.223 5.50734 199.804 9.92562 199.804H192.506C196.925 199.804 200.506 196.223 200.506 191.804V8.99902C200.506 4.58074 196.925 0.999022 192.506 0.999022H9.92563Z" fill="#6100FF"/>
</svg>
