<svg width="48" height="49" viewBox="0 0 48 49" fill="none" xmlns="http://www.w3.org/2000/svg">
<path d="M34.0621 25.9918L19.0621 40.9918C18.9227 41.1311 18.7573 41.2417 18.5752 41.3171C18.3931 41.3925 18.1979 41.4314 18.0008 41.4314C17.8037 41.4314 17.6086 41.3925 17.4265 41.3171C17.2444 41.2417 17.0789 41.1311 16.9396 40.9918C16.8002 40.8524 16.6897 40.687 16.6142 40.5049C16.5388 40.3228 16.5 40.1276 16.5 39.9305C16.5 39.7334 16.5388 39.5383 16.6142 39.3562C16.6897 39.1741 16.8002 39.0086 16.9396 38.8693L30.8802 24.9305L16.9396 10.9918C16.6581 10.7103 16.5 10.3286 16.5 9.93052C16.5 9.53248 16.6581 9.15073 16.9396 8.86927C17.221 8.58781 17.6028 8.42969 18.0008 8.42969C18.3989 8.42969 18.7806 8.58781 19.0621 8.86927L34.0621 23.8693C34.2015 24.0086 34.3122 24.174 34.3877 24.3561C34.4632 24.5382 34.502 24.7334 34.502 24.9305C34.502 25.1276 34.4632 25.3228 34.3877 25.5049C34.3122 25.687 34.2015 25.8525 34.0621 25.9918Z" fill="#343330"/>
</svg>
