<svg width="48" height="49" viewBox="0 0 48 49" fill="none" xmlns="http://www.w3.org/2000/svg">
<path d="M28.4999 21.5004C28.4999 21.8983 28.3419 22.2798 28.0606 22.5611C27.7793 22.8424 27.3978 23.0004 26.9999 23.0004H22.4999V27.5004C22.4999 27.8983 22.3419 28.2798 22.0606 28.5611C21.7793 28.8424 21.3978 29.0004 20.9999 29.0004C20.6021 29.0004 20.2206 28.8424 19.9393 28.5611C19.658 28.2798 19.4999 27.8983 19.4999 27.5004V23.0004H14.9999C14.6021 23.0004 14.2206 22.8424 13.9393 22.5611C13.658 22.2798 13.4999 21.8983 13.4999 21.5004C13.4999 21.1026 13.658 20.7211 13.9393 20.4398C14.2206 20.1585 14.6021 20.0004 14.9999 20.0004H19.4999V15.5004C19.4999 15.1026 19.658 14.7211 19.9393 14.4398C20.2206 14.1585 20.6021 14.0004 20.9999 14.0004C21.3978 14.0004 21.7793 14.1585 22.0606 14.4398C22.3419 14.7211 22.4999 15.1026 22.4999 15.5004V20.0004H26.9999C27.3978 20.0004 27.7793 20.1585 28.0606 20.4398C28.3419 20.7211 28.4999 21.1026 28.4999 21.5004ZM43.0612 43.5617C42.9219 43.7011 42.7564 43.8118 42.5743 43.8873C42.3923 43.9628 42.1971 44.0016 41.9999 44.0016C41.8028 44.0016 41.6076 43.9628 41.4255 43.8873C41.2434 43.8118 41.078 43.7011 40.9387 43.5617L31.5524 34.1736C28.2856 36.8946 24.0955 38.2515 19.8538 37.9619C15.6121 37.6723 11.6453 35.7585 8.77864 32.6187C5.91198 29.4789 4.36617 25.3548 4.46277 21.1042C4.55937 16.8537 6.29094 12.8041 9.29728 9.79777C12.3036 6.79143 16.3533 5.05985 20.6038 4.96325C24.8543 4.86665 28.9784 6.41247 32.1182 9.27912C35.258 12.1458 37.1718 16.1126 37.4614 20.3543C37.751 24.596 36.3941 28.7861 33.6731 32.0529L43.0612 41.4392C43.2007 41.5785 43.3113 41.7439 43.3868 41.926C43.4623 42.1081 43.5011 42.3033 43.5011 42.5004C43.5011 42.6975 43.4623 42.8927 43.3868 43.0748C43.3113 43.2569 43.2007 43.4224 43.0612 43.5617ZM20.9999 35.0004C23.67 35.0004 26.2801 34.2087 28.5001 32.7253C30.7202 31.2419 32.4505 29.1335 33.4723 26.6667C34.4941 24.1999 34.7614 21.4855 34.2405 18.8667C33.7196 16.248 32.4339 13.8425 30.5459 11.9545C28.6579 10.0665 26.2524 8.78073 23.6337 8.25983C21.0149 7.73893 18.3005 8.00627 15.8337 9.02805C13.3669 10.0498 11.2585 11.7802 9.7751 14.0002C8.2917 16.2203 7.49994 18.8304 7.49994 21.5004C7.50391 25.0796 8.9275 28.5111 11.4584 31.042C13.9893 33.5729 17.4207 34.9965 20.9999 35.0004Z" fill="#6100FF"/>
</svg>
