<svg width="32" height="32" viewBox="0 0 32 32" fill="none" xmlns="http://www.w3.org/2000/svg">
<path d="M29.4155 10.1714L21.8292 2.58644C21.6435 2.40067 21.423 2.25331 21.1803 2.15277C20.9376 2.05223 20.6775 2.00049 20.4148 2.00049C20.1522 2.00049 19.892 2.05223 19.6494 2.15277C19.4067 2.25331 19.1862 2.40067 19.0005 2.58644L12.2967 9.31144C10.9642 8.89394 7.92171 8.39019 4.74671 10.9539C4.52787 11.1299 4.34854 11.35 4.22039 11.5999C4.09224 11.8497 4.01815 12.1238 4.00294 12.4042C3.98773 12.6846 4.03173 12.9651 4.1321 13.2274C4.23247 13.4896 4.38694 13.7278 4.58546 13.9264L10.6255 19.9639L5.29296 25.2927C5.10532 25.4803 4.99991 25.7348 4.99991 26.0002C4.99991 26.2656 5.10532 26.52 5.29296 26.7077C5.4806 26.8953 5.7351 27.0007 6.00046 27.0007C6.26583 27.0007 6.52032 26.8953 6.70796 26.7077L12.0367 21.3752L18.073 27.4114C18.2585 27.5978 18.479 27.7457 18.7218 27.8467C18.9646 27.9478 19.225 27.9999 19.488 28.0002C19.5355 28.0002 19.5817 28.0002 19.6292 28.0002C19.9143 27.9804 20.1918 27.8995 20.4429 27.763C20.6939 27.6265 20.9127 27.4375 21.0842 27.2089C23.5392 23.9464 23.303 21.2939 22.733 19.7089L29.4167 13.0002C29.6024 12.8144 29.7497 12.5938 29.8501 12.3511C29.9505 12.1084 30.0022 11.8482 30.002 11.5856C30.0019 11.3229 29.9501 11.0628 29.8494 10.8201C29.7488 10.5775 29.6013 10.3571 29.4155 10.1714ZM28.0005 11.5864L20.8417 18.7689C20.6939 18.9173 20.5964 19.1084 20.5629 19.3152C20.5295 19.522 20.5619 19.734 20.6555 19.9214C21.838 22.2877 20.4305 24.7452 19.488 25.9989L6.00046 12.5102C7.51046 11.2927 8.95546 10.9714 10.0605 10.9714C10.7616 10.9619 11.457 11.0994 12.1017 11.3752C12.2898 11.4693 12.5028 11.5017 12.7104 11.4679C12.918 11.434 13.1096 11.3355 13.258 11.1864L20.4155 4.00019L28.0005 11.5852V11.5864Z" fill="#6100FF"/>
</svg>
