<svg width="1920" height="1218" viewBox="0 0 1920 1218" fill="none" xmlns="http://www.w3.org/2000/svg">
<path d="M2216.17 609.002C2216.17 776.874 2075.75 928.997 1848.38 1039.18C1621.05 1149.35 1306.96 1217.5 959.999 1217.5C613.038 1217.5 298.948 1149.35 71.6165 1039.18C-155.749 928.997 -296.172 776.874 -296.172 609.002C-296.172 441.13 -155.749 289.007 71.6165 178.823C298.948 68.6544 613.038 0.5 959.999 0.5C1306.96 0.5 1621.05 68.6544 1848.38 178.823C2075.75 289.007 2216.17 441.13 2216.17 609.002Z" stroke="#F2EBFF"/>
<path d="M2165.01 609.002C2165.01 770.027 2030.31 915.952 1812.21 1021.65C1594.13 1127.33 1292.83 1192.71 960 1192.71C627.167 1192.71 325.868 1127.33 107.795 1021.65C-110.312 915.952 -245.008 770.027 -245.008 609.002C-245.008 447.977 -110.312 302.053 107.795 196.355C325.868 90.6736 627.167 25.2944 960 25.2944C1292.83 25.2944 1594.13 90.6736 1812.21 196.355C2030.31 302.053 2165.01 447.977 2165.01 609.002Z" stroke="#F2EBFF"/>
<path d="M2114.25 609.002C2114.25 763.234 1985.23 903.008 1776.31 1004.25C1567.42 1105.48 1278.82 1168.11 960.001 1168.11C641.186 1168.11 352.578 1105.48 143.692 1004.25C-65.2279 903.008 -194.242 763.234 -194.242 609.002C-194.242 454.771 -65.2279 314.996 143.692 213.75C352.578 112.521 641.186 49.8955 960.001 49.8955C1278.82 49.8955 1567.42 112.521 1776.31 213.75C1985.23 314.996 2114.25 454.771 2114.25 609.002Z" stroke="#F2EBFF"/>
<path d="M2060.51 609.002C2060.51 756.042 1937.51 889.306 1738.31 985.84C1539.15 1082.36 1263.97 1142.07 959.999 1142.07C656.023 1142.07 380.849 1082.36 181.688 985.84C-17.5082 889.306 -140.508 756.042 -140.508 609.002C-140.508 461.962 -17.5082 328.698 181.688 232.165C380.849 135.648 656.023 75.9375 959.999 75.9375C1263.97 75.9375 1539.15 135.648 1738.31 232.165C1937.51 328.698 2060.51 461.962 2060.51 609.002Z" stroke="#F2EBFF"/>
<path d="M2006.9 609.002C2006.9 748.868 1889.9 875.638 1700.4 967.47C1510.94 1059.29 1249.17 1116.09 959.998 1116.09C670.825 1116.09 409.053 1059.29 219.592 967.47C30.0971 875.638 -86.9023 748.868 -86.9023 609.002C-86.9023 469.135 30.0971 342.366 219.592 250.534C409.053 158.719 670.825 101.916 959.998 101.916C1249.17 101.916 1510.94 158.719 1700.4 250.534C1889.9 342.366 2006.9 469.135 2006.9 609.002Z" stroke="#F2EBFF"/>
<path d="M1953.29 609.002C1953.29 741.695 1842.29 861.97 1662.5 949.101C1482.74 1036.22 1234.37 1090.11 959.998 1090.11C685.628 1090.11 437.257 1036.22 257.497 949.101C77.7026 861.97 -33.2969 741.695 -33.2969 609.002C-33.2969 476.31 77.7026 356.035 257.497 268.904C437.257 181.789 685.628 127.894 959.998 127.894C1234.37 127.894 1482.74 181.789 1662.5 268.904C1842.29 356.035 1953.29 476.31 1953.29 609.002Z" stroke="#F2EBFF"/>
<path d="M1899.69 609.002C1899.69 734.521 1794.69 848.302 1624.59 930.732C1454.53 1013.14 1219.57 1064.13 959.998 1064.13C700.43 1064.13 465.461 1013.14 295.402 930.732C125.308 848.302 20.3086 734.521 20.3086 609.002C20.3086 483.483 125.308 369.703 295.402 287.273C465.461 204.86 700.43 153.872 959.998 153.872C1219.57 153.872 1454.53 204.86 1624.59 287.273C1794.69 369.703 1899.69 483.483 1899.69 609.002Z" stroke="#F2EBFF"/>
<path d="M1846.08 609.002C1846.08 727.348 1747.08 834.633 1586.69 912.362C1426.33 990.074 1204.76 1038.15 959.997 1038.15C715.233 1038.15 493.665 990.074 333.306 912.362C172.913 834.633 73.9141 727.348 73.9141 609.002C73.9141 490.657 172.913 383.371 333.306 305.643C493.665 227.931 715.233 179.851 959.997 179.851C1204.76 179.851 1426.33 227.931 1586.69 305.643C1747.08 383.371 1846.08 490.657 1846.08 609.002Z" stroke="#F2EBFF"/>
<path d="M1792.48 609.003C1792.48 720.174 1699.48 820.965 1548.79 893.993C1398.13 967.004 1189.96 1012.18 960.001 1012.18C730.039 1012.18 521.873 967.004 371.215 893.993C220.523 820.965 127.523 720.174 127.523 609.003C127.523 497.831 220.523 397.04 371.215 324.012C521.873 251.001 730.039 205.829 960.001 205.829C1189.96 205.829 1398.13 251.001 1548.79 324.012C1699.48 397.04 1792.48 497.831 1792.48 609.003Z" stroke="#F2EBFF"/>
<path d="M1738.87 609.003C1738.87 713.001 1651.87 807.297 1510.88 875.624C1369.93 943.934 1175.16 986.198 960.001 986.198C744.842 986.198 550.077 943.934 409.12 875.624C268.128 807.297 181.129 713.001 181.129 609.003C181.129 505.005 268.128 410.708 409.12 342.382C550.077 274.072 744.842 231.807 960.001 231.807C1175.16 231.807 1369.93 274.072 1510.88 342.382C1651.87 410.708 1738.87 505.005 1738.87 609.003Z" stroke="#F2EBFF"/>
<path d="M1689.39 609.002C1689.39 706.379 1607.93 794.68 1475.89 858.667C1343.89 922.638 1161.49 962.218 959.999 962.218C758.504 962.218 576.11 922.638 444.107 858.667C312.07 794.68 230.609 706.379 230.609 609.002C230.609 511.626 312.07 423.325 444.107 359.338C576.11 295.367 758.504 255.787 959.999 255.787C1161.49 255.787 1343.89 295.367 1475.89 359.338C1607.93 423.325 1689.39 511.626 1689.39 609.002Z" stroke="#F2EBFF"/>
<path d="M1631.66 609.003C1631.66 698.654 1556.66 779.961 1435.07 838.885C1313.52 897.793 1145.55 934.242 960 934.242C774.447 934.242 606.485 897.793 484.929 838.885C363.339 779.961 288.34 698.654 288.34 609.003C288.34 519.352 363.339 438.045 484.929 379.12C606.485 320.213 774.447 283.764 960 283.764C1145.55 283.764 1313.52 320.213 1435.07 379.12C1556.66 438.045 1631.66 519.352 1631.66 609.003Z" stroke="#F2EBFF"/>
<path d="M1578.05 609.003C1578.05 691.48 1509.05 766.292 1397.17 820.516C1285.31 874.722 1130.75 908.263 959.999 908.263C789.249 908.263 634.688 874.722 522.834 820.516C410.945 766.292 341.945 691.48 341.945 609.003C341.945 526.526 410.945 451.713 522.834 397.49C634.688 343.283 789.249 309.742 959.999 309.742C1130.75 309.742 1285.31 343.283 1397.17 397.49C1509.05 451.713 1578.05 526.526 1578.05 609.003Z" stroke="#F2EBFF"/>
<path d="M1524.45 609.003C1524.45 684.306 1461.45 752.624 1359.26 802.146C1257.11 851.652 1115.95 882.285 960 882.285C804.052 882.285 662.892 851.652 560.738 802.146C458.55 752.624 395.551 684.306 395.551 609.003C395.551 533.699 458.55 465.381 560.738 415.859C662.892 366.353 804.052 335.72 960 335.72C1115.95 335.72 1257.11 366.353 1359.26 415.859C1461.45 465.381 1524.45 533.699 1524.45 609.003Z" stroke="#F2EBFF"/>
<path d="M1466.72 609.003C1466.72 676.581 1410.18 737.905 1318.44 782.364C1226.73 826.807 1100.01 854.309 960.001 854.309C819.995 854.309 693.267 826.807 601.56 782.364C509.819 737.905 453.281 676.581 453.281 609.003C453.281 541.425 509.819 480.101 601.56 435.641C693.267 391.199 819.995 363.696 960.001 363.696C1100.01 363.696 1226.73 391.199 1318.44 435.641C1410.18 480.101 1466.72 541.425 1466.72 609.003Z" stroke="#F2EBFF"/>
<path d="M1413.11 609.003C1413.11 669.407 1362.58 724.237 1280.54 763.995C1198.53 803.736 1085.2 828.331 960.001 828.331C834.797 828.331 721.472 803.736 639.465 763.995C557.424 724.237 506.887 669.407 506.887 609.003C506.887 548.598 557.424 493.769 639.465 454.01C721.472 414.269 834.797 389.674 960.001 389.674C1085.2 389.674 1198.53 414.269 1280.54 454.01C1362.58 493.769 1413.11 548.598 1413.11 609.003Z" stroke="#F2EBFF"/>
<path d="M1359.63 609.003C1359.63 662.25 1315.08 710.601 1242.72 745.669C1170.39 780.721 1070.43 802.415 959.997 802.415C849.56 802.415 749.604 780.721 677.275 745.669C604.911 710.601 560.359 662.25 560.359 609.003C560.359 555.755 604.911 507.404 677.275 472.335C749.604 437.284 849.56 415.59 959.997 415.59C1070.43 415.59 1170.39 437.284 1242.72 472.335C1315.08 507.404 1359.63 555.755 1359.63 609.003Z" stroke="#F2EBFF"/>
<path d="M1305.9 609.003C1305.9 655.059 1267.36 696.9 1204.72 727.256C1142.12 757.595 1055.6 776.374 960 776.374C864.402 776.374 777.879 757.595 715.274 727.256C652.635 696.9 614.098 655.059 614.098 609.003C614.098 562.946 652.635 521.105 715.274 490.749C777.879 460.41 864.402 441.631 960 441.631C1055.6 441.631 1142.12 460.41 1204.72 490.749C1267.36 521.105 1305.9 562.946 1305.9 609.003Z" stroke="#F2EBFF"/>
<path d="M1252.43 609.003C1252.43 647.903 1219.87 683.265 1166.91 708.931C1113.98 734.581 1040.83 750.459 960 750.459C879.17 750.459 806.016 734.581 753.088 708.931C700.126 683.265 667.574 647.903 667.574 609.003C667.574 570.102 700.126 534.741 753.088 509.074C806.016 483.425 879.17 467.546 960 467.546C1040.83 467.546 1113.98 483.425 1166.91 509.074C1219.87 534.741 1252.43 570.102 1252.43 609.003Z" stroke="#F2EBFF"/>
<path d="M1198.69 609.003C1198.69 640.712 1172.15 669.564 1128.91 690.518C1085.71 711.455 1025.99 724.418 959.999 724.418C894.007 724.418 834.287 711.455 791.084 690.518C747.846 669.564 721.309 640.712 721.309 609.003C721.309 577.293 747.846 548.442 791.084 527.488C834.287 506.551 894.007 493.587 959.999 493.587C1025.99 493.587 1085.71 506.551 1128.91 527.488C1172.15 548.442 1198.69 577.293 1198.69 609.003Z" stroke="#F2EBFF"/>
<path d="M1153.33 609.002C1153.33 634.642 1131.87 657.998 1096.84 674.974C1061.85 691.933 1013.47 702.437 960 702.437C906.534 702.437 858.153 691.933 823.158 674.974C788.129 657.998 766.668 634.642 766.668 609.002C766.668 583.363 788.129 560.007 823.158 543.031C858.153 526.072 906.534 515.568 960 515.568C1013.47 515.568 1061.85 526.072 1096.84 543.031C1131.87 560.007 1153.33 583.363 1153.33 609.002Z" stroke="#F2EBFF"/>
<path d="M1099.73 609.003C1099.73 627.468 1084.26 644.33 1058.94 656.605C1033.64 668.862 998.663 676.458 959.999 676.458C921.336 676.458 886.357 668.862 861.063 656.605C835.734 644.33 820.273 627.468 820.273 609.003C820.273 590.537 835.734 573.675 861.063 561.401C886.357 549.143 921.336 541.547 959.999 541.547C998.663 541.547 1033.64 549.143 1058.94 561.401C1084.26 573.675 1099.73 590.537 1099.73 609.003Z" stroke="#F2EBFF"/>
<path d="M1054.37 609.003C1054.37 621.398 1043.98 632.764 1026.86 641.061C1009.78 649.341 986.138 654.477 960 654.477C933.862 654.477 910.223 649.341 893.137 641.061C876.016 632.764 865.633 621.398 865.633 609.003C865.633 596.607 876.016 585.241 893.137 576.944C910.223 568.664 933.862 563.528 960 563.528C986.138 563.528 1009.78 568.664 1026.86 576.944C1043.98 585.241 1054.37 596.607 1054.37 609.003Z" stroke="#F2EBFF"/>
<path d="M1013.33 609.003C1013.33 615.857 1007.54 622.208 997.845 626.875C988.185 631.525 974.805 634.415 960 634.415C945.194 634.415 931.814 631.525 922.155 626.875C912.459 622.208 906.672 615.857 906.672 609.003C906.672 602.149 912.459 595.798 922.155 591.131C931.814 586.481 945.194 583.591 960 583.591C974.805 583.591 988.185 586.481 997.845 591.131C1007.54 595.798 1013.33 602.149 1013.33 609.003Z" stroke="#F2EBFF"/>
</svg>
