<svg width="79" height="39" viewBox="0 0 79 39" fill="none" xmlns="http://www.w3.org/2000/svg">
<rect y="0.430664" width="79" height="38" rx="19" fill="#F2EBFF"/>
<path d="M19.75 13.6338C19.75 17.1963 17.3125 19.7275 13.25 20.8682L12.6406 19.7119C15.8672 18.8057 17.875 17.0557 18.1719 14.8525H13.375V13.6338H19.75ZM24.1875 12.7744V20.6963H22.7031V17.5088H19.8125V16.2744H22.7031V12.7744H24.1875ZM24.1875 21.2744V26.5713H15.0312V21.2744H24.1875ZM16.4844 22.4619V25.3838H22.7188V22.4619H16.4844ZM31.0431 16.3213C31.0275 18.8057 32.465 21.3369 34.5588 22.3525L33.6369 23.54C32.1134 22.751 30.9338 21.1807 30.3244 19.3057C29.6916 21.3057 28.465 22.9775 26.8713 23.8057L25.9494 22.6025C28.1056 21.5713 29.5588 18.8838 29.5588 16.3213V13.9307H31.0431V16.3213ZM37.09 12.7588V18.3369H39.34V19.6025H37.09V26.7588H35.6056V12.7588H37.09ZM44.1019 13.3838C46.1488 13.3838 47.5863 14.5088 47.6019 16.1807C47.5863 17.6025 46.5081 18.6494 44.8831 18.8994V20.1338C46.1253 20.0713 47.3675 19.9619 48.5238 19.79L48.6331 20.8838C45.6956 21.415 42.3988 21.4619 39.9925 21.4619L39.8363 20.2588C40.8831 20.2666 42.1097 20.2588 43.3988 20.2119V18.915C41.7269 18.6807 40.6019 17.626 40.6175 16.1807C40.6019 14.5088 42.055 13.3838 44.1019 13.3838ZM44.1019 14.5244C42.8675 14.5244 41.9925 15.165 42.0081 16.1807C41.9925 17.165 42.8675 17.8213 44.1019 17.8213C45.3519 17.8213 46.1956 17.165 46.1956 16.1807C46.1956 15.165 45.3519 14.5244 44.1019 14.5244ZM50.8675 12.7744V17.3994H52.8675V18.6494H50.8675V23.4775H49.3831V12.7744H50.8675ZM51.3675 25.2432V26.4619H41.8206V22.54H43.305V25.2432H51.3675ZM66.3325 23.8369V25.0869H53.52V23.8369H57.02V21.3682H55.0825V16.915H63.3013V14.9619H55.0513V13.7432H64.77V18.1182H56.5513V20.1494H65.0981V21.3682H62.9731V23.8369H66.3325ZM58.4575 23.8369H61.52V21.3682H58.4575V23.8369Z" fill="#6100FF"/>
</svg>
