<svg width="19" height="19" viewBox="0 0 19 19" fill="none" xmlns="http://www.w3.org/2000/svg">
<path fill-rule="evenodd" clip-rule="evenodd" d="M4.96007 5.82783C4.96007 3.82114 6.78201 2.04417 9.22343 2.04417C11.6648 2.04417 13.4868 3.82114 13.4868 5.82783C13.4868 6.35024 13.911 6.77374 14.4342 6.77374C14.9574 6.77374 15.3816 6.35024 15.3816 5.82783C15.3816 4.60728 14.9722 3.49596 14.2831 2.58666L15.104 1.76712C15.474 1.39772 15.474 0.798798 15.104 0.429395C14.734 0.0599931 14.1341 0.0599932 13.7641 0.429395L12.9098 1.28234C11.8708 0.568461 10.5868 0.152344 9.22343 0.152344C7.85997 0.152344 6.57601 0.568486 5.53694 1.2824L4.68258 0.429395C4.31259 0.0599932 3.71272 0.0599932 3.34273 0.429395C2.97275 0.798798 2.97275 1.39772 3.34273 1.76712L4.16367 2.58675C3.4746 3.49603 3.06524 4.60732 3.06524 5.82783C3.06524 6.35024 3.48941 6.77374 4.01266 6.77374C4.5359 6.77374 4.96007 6.35024 4.96007 5.82783ZM3.06524 12.4492C3.06524 13.7896 3.55898 14.9983 4.3747 15.9523L3.34273 16.9827C2.97275 17.3521 2.97275 17.951 3.34273 18.3204C3.71272 18.6898 4.31259 18.6898 4.68258 18.3204L5.82417 17.1806C6.80844 17.7803 7.98304 18.1247 9.22343 18.1247C10.4638 18.1247 11.6383 17.7803 12.6226 17.1807L13.7641 18.3204C14.1341 18.6898 14.734 18.6898 15.104 18.3204C15.474 17.951 15.474 17.3521 15.104 16.9827L14.0721 15.9524C14.8878 14.9984 15.3816 13.7897 15.3816 12.4492C15.3816 11.9268 14.9574 11.5033 14.4342 11.5033C13.911 11.5033 13.4868 11.9268 13.4868 12.4492C13.4868 14.1864 12.1214 15.7514 10.1707 16.1405V13.3949C10.1707 12.8725 9.74651 12.449 9.22327 12.449C8.70002 12.449 8.27585 12.8725 8.27585 13.3949V16.1404C6.32533 15.7512 4.96007 14.1863 4.96007 12.4492C4.96007 11.9268 4.5359 11.5033 4.01266 11.5033C3.48941 11.5033 3.06524 11.9268 3.06524 12.4492ZM0.222656 9.13829C0.222656 8.61588 0.646828 8.19238 1.17007 8.19238H17.2761C17.7993 8.19238 18.2235 8.61588 18.2235 9.13829C18.2235 9.6607 17.7993 10.0842 17.2761 10.0842H1.17007C0.646828 10.0842 0.222656 9.6607 0.222656 9.13829Z" fill="white"/>
</svg>
