<svg width="25" height="25" viewBox="0 0 25 25" fill="none" xmlns="http://www.w3.org/2000/svg">
<path d="M17.4764 12.9612L9.97635 20.4612C9.90667 20.5309 9.82395 20.5862 9.7329 20.6239C9.64186 20.6616 9.54428 20.681 9.44573 20.681C9.34718 20.681 9.2496 20.6616 9.15856 20.6239C9.06751 20.5862 8.98479 20.5309 8.9151 20.4612C8.84542 20.3915 8.79015 20.3088 8.75243 20.2178C8.71472 20.1267 8.69531 20.0291 8.69531 19.9306C8.69531 19.832 8.71472 19.7345 8.75243 19.6434C8.79015 19.5524 8.84542 19.4697 8.9151 19.4L15.8854 12.4306L8.9151 5.46122C8.77437 5.32049 8.69531 5.12962 8.69531 4.93059C8.69531 4.73157 8.77437 4.5407 8.9151 4.39997C9.05583 4.25924 9.24671 4.18018 9.44573 4.18018C9.64475 4.18018 9.83562 4.25924 9.97635 4.39997L17.4764 11.9C17.5461 11.9696 17.6014 12.0523 17.6391 12.1434C17.6769 12.2344 17.6963 12.332 17.6963 12.4306C17.6963 12.5292 17.6769 12.6267 17.6391 12.7178C17.6014 12.8088 17.5461 12.8916 17.4764 12.9612Z" fill="white"/>
</svg>
