<svg width="28" height="28" viewBox="0 0 28 28" fill="none" xmlns="http://www.w3.org/2000/svg">
<path d="M23.8467 4.03667C23.7082 3.71424 23.3926 3.50383 23.0417 3.5H17.2083C16.7251 3.5 16.3333 3.89175 16.3333 4.375C16.3333 4.85825 16.7251 5.25 17.2083 5.25H20.93L14.2567 11.9233C13.9155 12.265 13.9155 12.8184 14.2567 13.16C14.5983 13.5012 15.1517 13.5012 15.4933 13.16L22.1667 6.48667V10.2083C22.1667 10.6916 22.5584 11.0833 23.0417 11.0833C23.5249 11.0833 23.9167 10.6916 23.9167 10.2083V4.375C23.9161 4.25869 23.8923 4.14367 23.8467 4.03667Z" fill="#6100FF"/>
<path d="M20.7083 12.8333C20.2277 12.8396 19.8396 13.2277 19.8333 13.7083V18.375C19.8269 20.4664 18.1331 22.1603 16.0417 22.1667H9.04167C6.95025 22.1603 5.25641 20.4664 5.25 18.375V11.375C5.25641 9.28358 6.95025 7.58974 9.04167 7.58333H13.7083C14.1916 7.58333 14.5833 7.19158 14.5833 6.70833C14.5833 6.22508 14.1916 5.83333 13.7083 5.83333H9.04167C5.98109 5.83333 3.5 8.31442 3.5 11.375V18.375C3.5 21.4356 5.98109 23.9167 9.04167 23.9167H16.0417C19.1022 23.9167 21.5833 21.4356 21.5833 18.375V13.7083C21.577 13.2277 21.189 12.8396 20.7083 12.8333Z" fill="#6100FF"/>
</svg>
