<svg width="969" height="35" viewBox="0 0 969 35" fill="none" xmlns="http://www.w3.org/2000/svg">
<g clip-path="url(#clip0_2431_4816)">
<rect x="0.5" width="221" height="35" rx="8" fill="#FAF8FF"/>
<rect width="221" height="35" transform="translate(0.5)" fill="#7E5AFF" fill-opacity="0.12"/>
<path fill-rule="evenodd" clip-rule="evenodd" d="M32.03 14.9402L25.03 7.94016C24.8827 7.81389 24.694 7.74625 24.5 7.75016H21.5C18.8766 7.75016 16.75 9.87681 16.75 12.5002V22.5002C16.75 25.1235 18.8766 27.2502 21.5 27.2502H27.5C30.1234 27.2502 32.25 25.1235 32.25 22.5002V15.5002C32.2534 15.2918 32.1743 15.0905 32.03 14.9402ZM25.25 10.2902L29.71 14.7502H26.5C25.8096 14.7502 25.25 14.1905 25.25 13.5002V10.2902ZM18.25 22.5002C18.2555 24.2928 19.7074 25.7447 21.5 25.7502H27.5C29.2926 25.7447 30.7445 24.2928 30.75 22.5002V16.2502H26.5C24.9812 16.2502 23.75 15.0189 23.75 13.5002V9.25016H21.5C19.7074 9.25565 18.2555 10.7075 18.25 12.5002V22.5002Z" fill="#848484"/>
<path d="M72.9541 23.0909C72.6738 23.0909 72.4332 22.9905 72.2325 22.7898C72.0317 22.589 71.9313 22.3485 71.9313 22.0682C71.9313 21.7879 72.0317 21.5473 72.2325 21.3466C72.4332 21.1458 72.6738 21.0455 72.9541 21.0455C73.2344 21.0455 73.4749 21.1458 73.6756 21.3466C73.8764 21.5473 73.9768 21.7879 73.9768 22.0682C73.9768 22.2538 73.9294 22.4242 73.8347 22.5795C73.7438 22.7348 73.6207 22.8598 73.4654 22.9545C73.3139 23.0455 73.1435 23.0909 72.9541 23.0909ZM79.8821 23.1818C79.0412 23.1818 78.3158 22.9962 77.706 22.625C77.0999 22.25 76.6321 21.7273 76.3026 21.0568C75.9768 20.3826 75.8139 19.5985 75.8139 18.7045C75.8139 17.8106 75.9768 17.0227 76.3026 16.3409C76.6321 15.6553 77.0905 15.1212 77.6776 14.7386C78.2685 14.3523 78.9579 14.1591 79.7458 14.1591C80.2003 14.1591 80.6492 14.2348 81.0924 14.3864C81.5355 14.5379 81.9389 14.7841 82.3026 15.125C82.6662 15.4621 82.956 15.9091 83.1719 16.4659C83.3878 17.0227 83.4958 17.7083 83.4958 18.5227V19.0909H76.7685V17.9318H82.1321C82.1321 17.4394 82.0336 17 81.8367 16.6136C81.6435 16.2273 81.367 15.9223 81.0071 15.6989C80.6511 15.4754 80.2306 15.3636 79.7458 15.3636C79.2117 15.3636 78.7495 15.4962 78.3594 15.7614C77.973 16.0227 77.6757 16.3636 77.4674 16.7841C77.259 17.2045 77.1549 17.6553 77.1549 18.1364V18.9091C77.1549 19.5682 77.2685 20.1269 77.4958 20.5852C77.7268 21.0398 78.0469 21.3864 78.456 21.625C78.8651 21.8598 79.3405 21.9773 79.8821 21.9773C80.2344 21.9773 80.5526 21.928 80.8367 21.8295C81.1246 21.7273 81.3727 21.5758 81.581 21.375C81.7893 21.1705 81.9503 20.9167 82.0639 20.6136L83.3594 20.9773C83.223 21.4167 82.9939 21.803 82.6719 22.1364C82.3499 22.4659 81.9522 22.7235 81.4787 22.9091C81.0052 23.0909 80.473 23.1818 79.8821 23.1818ZM91.5574 16.2273L90.3528 16.5682C90.2771 16.3674 90.1653 16.1723 90.0176 15.983C89.8736 15.7898 89.6767 15.6307 89.4267 15.5057C89.1767 15.3807 88.8566 15.3182 88.4664 15.3182C87.9324 15.3182 87.4873 15.4413 87.1312 15.6875C86.7789 15.9299 86.6028 16.2386 86.6028 16.6136C86.6028 16.947 86.724 17.2102 86.9664 17.4034C87.2089 17.5966 87.5877 17.7576 88.1028 17.8864L89.3983 18.2045C90.1786 18.3939 90.76 18.6837 91.1426 19.0739C91.5252 19.4602 91.7164 19.9583 91.7164 20.5682C91.7164 21.0682 91.5725 21.5152 91.2846 21.9091C91.0005 22.303 90.6028 22.6136 90.0914 22.8409C89.5801 23.0682 88.9854 23.1818 88.3074 23.1818C87.4172 23.1818 86.6805 22.9886 86.0971 22.6023C85.5138 22.2159 85.1445 21.6515 84.9892 20.9091L86.2619 20.5909C86.3831 21.0606 86.6123 21.4129 86.9494 21.6477C87.2903 21.8826 87.7354 22 88.2846 22C88.9096 22 89.4058 21.8674 89.7733 21.6023C90.1445 21.3333 90.3301 21.0114 90.3301 20.6364C90.3301 20.3333 90.224 20.0795 90.0119 19.875C89.7998 19.6667 89.474 19.5114 89.0346 19.4091L87.5801 19.0682C86.7808 18.8788 86.1937 18.5852 85.8187 18.1875C85.4475 17.786 85.2619 17.2841 85.2619 16.6818C85.2619 16.1894 85.4002 15.7538 85.6767 15.375C85.957 14.9962 86.3377 14.6989 86.8187 14.483C87.3036 14.267 87.8528 14.1591 88.4664 14.1591C89.3301 14.1591 90.0081 14.3485 90.5005 14.7273C90.9967 15.1061 91.349 15.6061 91.5574 16.2273ZM94.9158 11.3636V23H93.5749V11.3636H94.9158ZM97.2118 23V14.2727H98.5527V23H97.2118ZM97.8936 12.8182C97.6322 12.8182 97.4069 12.7292 97.2175 12.5511C97.0319 12.3731 96.9391 12.1591 96.9391 11.9091C96.9391 11.6591 97.0319 11.4451 97.2175 11.267C97.4069 11.089 97.6322 11 97.8936 11C98.155 11 98.3785 11.089 98.5641 11.267C98.7535 11.4451 98.8481 11.6591 98.8481 11.9091C98.8481 12.1591 98.7535 12.3731 98.5641 12.5511C98.3785 12.7292 98.155 12.8182 97.8936 12.8182ZM102.19 17.75V23H100.849V14.2727H102.144V15.6364H102.258C102.462 15.1932 102.773 14.8371 103.19 14.5682C103.606 14.2955 104.144 14.1591 104.803 14.1591C105.394 14.1591 105.911 14.2803 106.354 14.5227C106.798 14.7614 107.142 15.125 107.388 15.6136C107.635 16.0985 107.758 16.7121 107.758 17.4545V23H106.417V17.5455C106.417 16.8598 106.239 16.3258 105.883 15.9432C105.527 15.5568 105.038 15.3636 104.417 15.3636C103.989 15.3636 103.606 15.4564 103.269 15.642C102.936 15.8277 102.673 16.0985 102.479 16.4545C102.286 16.8106 102.19 17.2424 102.19 17.75ZM113.843 14.2727V15.4091H109.321V14.2727H113.843ZM110.639 12.1818H111.98V20.5C111.98 20.8788 112.035 21.1629 112.145 21.3523C112.258 21.5379 112.402 21.6629 112.576 21.7273C112.754 21.7879 112.942 21.8182 113.139 21.8182C113.287 21.8182 113.408 21.8106 113.503 21.7955C113.597 21.7765 113.673 21.7614 113.73 21.75L114.003 22.9545C113.912 22.9886 113.785 23.0227 113.622 23.0568C113.459 23.0947 113.253 23.1136 113.003 23.1136C112.624 23.1136 112.253 23.0322 111.889 22.8693C111.529 22.7064 111.23 22.4583 110.991 22.125C110.756 21.7917 110.639 21.3712 110.639 20.8636V12.1818ZM115.701 23V14.2727H116.996V15.5909H117.087C117.246 15.1591 117.534 14.8087 117.951 14.5398C118.367 14.2708 118.837 14.1364 119.36 14.1364C119.458 14.1364 119.581 14.1383 119.729 14.142C119.877 14.1458 119.988 14.1515 120.064 14.1591V15.5227C120.019 15.5114 119.915 15.4943 119.752 15.4716C119.593 15.4451 119.424 15.4318 119.246 15.4318C118.822 15.4318 118.443 15.5208 118.11 15.6989C117.78 15.8731 117.519 16.1155 117.326 16.4261C117.136 16.733 117.041 17.0833 117.041 17.4773V23H115.701ZM124.773 23.1818C123.955 23.1818 123.251 22.9886 122.66 22.6023C122.069 22.2159 121.614 21.6837 121.296 21.0057C120.978 20.3277 120.819 19.553 120.819 18.6818C120.819 17.7955 120.982 17.0133 121.308 16.3352C121.637 15.6534 122.095 15.1212 122.683 14.7386C123.273 14.3523 123.963 14.1591 124.751 14.1591C125.364 14.1591 125.917 14.2727 126.41 14.5C126.902 14.7273 127.306 15.0455 127.62 15.4545C127.934 15.8636 128.13 16.3409 128.205 16.8864H126.864C126.762 16.4886 126.535 16.1364 126.183 15.8295C125.834 15.5189 125.364 15.3636 124.773 15.3636C124.251 15.3636 123.792 15.5 123.398 15.7727C123.008 16.0417 122.703 16.4223 122.484 16.9148C122.268 17.4034 122.16 17.9773 122.16 18.6364C122.16 19.3106 122.266 19.8977 122.478 20.3977C122.694 20.8977 122.997 21.286 123.387 21.5625C123.781 21.839 124.243 21.9773 124.773 21.9773C125.122 21.9773 125.438 21.9167 125.722 21.7955C126.006 21.6742 126.247 21.5 126.444 21.2727C126.641 21.0455 126.781 20.7727 126.864 20.4545H128.205C128.13 20.9697 127.942 21.4337 127.643 21.8466C127.347 22.2557 126.955 22.5814 126.467 22.8239C125.982 23.0625 125.417 23.1818 124.773 23.1818ZM130.983 23.0909C130.703 23.0909 130.462 22.9905 130.261 22.7898C130.06 22.589 129.96 22.3485 129.96 22.0682C129.96 21.7879 130.06 21.5473 130.261 21.3466C130.462 21.1458 130.703 21.0455 130.983 21.0455C131.263 21.0455 131.504 21.1458 131.704 21.3466C131.905 21.5473 132.006 21.7879 132.006 22.0682C132.006 22.2538 131.958 22.4242 131.863 22.5795C131.773 22.7348 131.649 22.8598 131.494 22.9545C131.343 23.0455 131.172 23.0909 130.983 23.0909ZM134.252 14.2727H135.593V23.6364C135.593 24.1742 135.5 24.6402 135.314 25.0341C135.132 25.428 134.856 25.733 134.485 25.9489C134.117 26.1648 133.653 26.2727 133.093 26.2727C133.047 26.2727 133.002 26.2727 132.956 26.2727C132.911 26.2727 132.865 26.2727 132.82 26.2727V25.0227C132.865 25.0227 132.907 25.0227 132.945 25.0227C132.983 25.0227 133.025 25.0227 133.07 25.0227C133.479 25.0227 133.778 24.9015 133.968 24.6591C134.157 24.4205 134.252 24.0795 134.252 23.6364V14.2727ZM134.911 12.8182C134.65 12.8182 134.424 12.7292 134.235 12.5511C134.049 12.3731 133.956 12.1591 133.956 11.9091C133.956 11.6591 134.049 11.4451 134.235 11.267C134.424 11.089 134.65 11 134.911 11C135.172 11 135.396 11.089 135.581 11.267C135.771 11.4451 135.865 11.6591 135.865 11.9091C135.865 12.1591 135.771 12.3731 135.581 12.5511C135.396 12.7292 135.172 12.8182 134.911 12.8182ZM144.07 16.2273L142.866 16.5682C142.79 16.3674 142.678 16.1723 142.531 15.983C142.387 15.7898 142.19 15.6307 141.94 15.5057C141.69 15.3807 141.37 15.3182 140.98 15.3182C140.445 15.3182 140 15.4413 139.644 15.6875C139.292 15.9299 139.116 16.2386 139.116 16.6136C139.116 16.947 139.237 17.2102 139.48 17.4034C139.722 17.5966 140.101 17.7576 140.616 17.8864L141.911 18.2045C142.692 18.3939 143.273 18.6837 143.656 19.0739C144.038 19.4602 144.23 19.9583 144.23 20.5682C144.23 21.0682 144.086 21.5152 143.798 21.9091C143.514 22.303 143.116 22.6136 142.605 22.8409C142.093 23.0682 141.499 23.1818 140.82 23.1818C139.93 23.1818 139.194 22.9886 138.61 22.6023C138.027 22.2159 137.658 21.6515 137.502 20.9091L138.775 20.5909C138.896 21.0606 139.125 21.4129 139.463 21.6477C139.803 21.8826 140.249 22 140.798 22C141.423 22 141.919 21.8674 142.286 21.6023C142.658 21.3333 142.843 21.0114 142.843 20.6364C142.843 20.3333 142.737 20.0795 142.525 19.875C142.313 19.6667 141.987 19.5114 141.548 19.4091L140.093 19.0682C139.294 18.8788 138.707 18.5852 138.332 18.1875C137.961 17.786 137.775 17.2841 137.775 16.6818C137.775 16.1894 137.913 15.7538 138.19 15.375C138.47 14.9962 138.851 14.6989 139.332 14.483C139.817 14.267 140.366 14.1591 140.98 14.1591C141.843 14.1591 142.521 14.3485 143.014 14.7273C143.51 15.1061 143.862 15.6061 144.07 16.2273ZM149.633 23.1818C148.846 23.1818 148.154 22.9943 147.56 22.6193C146.969 22.2443 146.507 21.7197 146.173 21.0455C145.844 20.3712 145.679 19.5833 145.679 18.6818C145.679 17.7727 145.844 16.9792 146.173 16.3011C146.507 15.6231 146.969 15.0966 147.56 14.7216C148.154 14.3466 148.846 14.1591 149.633 14.1591C150.421 14.1591 151.111 14.3466 151.702 14.7216C152.296 15.0966 152.758 15.6231 153.088 16.3011C153.421 16.9792 153.588 17.7727 153.588 18.6818C153.588 19.5833 153.421 20.3712 153.088 21.0455C152.758 21.7197 152.296 22.2443 151.702 22.6193C151.111 22.9943 150.421 23.1818 149.633 23.1818ZM149.633 21.9773C150.232 21.9773 150.724 21.8239 151.111 21.517C151.497 21.2102 151.783 20.8068 151.969 20.3068C152.154 19.8068 152.247 19.2652 152.247 18.6818C152.247 18.0985 152.154 17.5549 151.969 17.0511C151.783 16.5473 151.497 16.1402 151.111 15.8295C150.724 15.5189 150.232 15.3636 149.633 15.3636C149.035 15.3636 148.543 15.5189 148.156 15.8295C147.77 16.1402 147.484 16.5473 147.298 17.0511C147.113 17.5549 147.02 18.0985 147.02 18.6818C147.02 19.2652 147.113 19.8068 147.298 20.3068C147.484 20.8068 147.77 21.2102 148.156 21.517C148.543 21.8239 149.035 21.9773 149.633 21.9773ZM156.816 17.75V23H155.475V14.2727H156.77V15.6364H156.884C157.089 15.1932 157.399 14.8371 157.816 14.5682C158.232 14.2955 158.77 14.1591 159.429 14.1591C160.02 14.1591 160.537 14.2803 160.981 14.5227C161.424 14.7614 161.768 15.125 162.015 15.6136C162.261 16.0985 162.384 16.7121 162.384 17.4545V23H161.043V17.5455C161.043 16.8598 160.865 16.3258 160.509 15.9432C160.153 15.5568 159.664 15.3636 159.043 15.3636C158.615 15.3636 158.232 15.4564 157.895 15.642C157.562 15.8277 157.299 16.0985 157.106 16.4545C156.912 16.8106 156.816 17.2424 156.816 17.75Z" fill="#3F3F3F"/>
<path d="M204.81 17.5004L207.28 15.031C207.35 14.9614 207.405 14.8786 207.443 14.7876C207.481 14.6965 207.5 14.599 207.5 14.5004C207.5 14.4019 207.481 14.3043 207.443 14.2132C207.405 14.1222 207.35 14.0395 207.28 13.9698C207.211 13.9001 207.128 13.8448 207.037 13.8071C206.946 13.7694 206.848 13.75 206.75 13.75C206.651 13.75 206.554 13.7694 206.463 13.8071C206.371 13.8448 206.289 13.9001 206.219 13.9698L203.75 16.4401L201.28 13.9698C201.14 13.8291 200.949 13.75 200.75 13.75C200.551 13.75 200.36 13.8291 200.219 13.9698C200.078 14.1105 199.999 14.3014 199.999 14.5004C199.999 14.6994 200.078 14.8903 200.219 15.031L202.689 17.5004L200.219 19.9698C200.149 20.0395 200.094 20.1222 200.056 20.2132C200.019 20.3043 199.999 20.4019 199.999 20.5004C199.999 20.599 200.019 20.6965 200.056 20.7876C200.094 20.8786 200.149 20.9614 200.219 21.031C200.289 21.1007 200.371 21.156 200.463 21.1937C200.554 21.2314 200.651 21.2508 200.75 21.2508C200.848 21.2508 200.946 21.2314 201.037 21.1937C201.128 21.156 201.211 21.1007 201.28 21.031L203.75 18.5607L206.219 21.031C206.289 21.1007 206.371 21.156 206.463 21.1937C206.554 21.2314 206.651 21.2508 206.75 21.2508C206.848 21.2508 206.946 21.2314 207.037 21.1937C207.128 21.156 207.211 21.1007 207.28 21.031C207.35 20.9614 207.405 20.8786 207.443 20.7876C207.481 20.6965 207.5 20.599 207.5 20.5004C207.5 20.4019 207.481 20.3043 207.443 20.2132C207.405 20.1222 207.35 20.0395 207.28 19.9698L204.81 17.5004Z" fill="#3F3F3F"/>
</g>
<g clip-path="url(#clip1_2431_4816)">
<path fill-rule="evenodd" clip-rule="evenodd" d="M281.03 14.9402L274.03 7.94016C273.883 7.81389 273.694 7.74625 273.5 7.75016H270.5C267.877 7.75016 265.75 9.87681 265.75 12.5002V22.5002C265.75 25.1235 267.877 27.2502 270.5 27.2502H276.5C279.123 27.2502 281.25 25.1235 281.25 22.5002V15.5002C281.253 15.2918 281.174 15.0905 281.03 14.9402ZM274.25 10.2902L278.71 14.7502H275.5C274.81 14.7502 274.25 14.1905 274.25 13.5002V10.2902ZM267.25 22.5002C267.255 24.2928 268.707 25.7447 270.5 25.7502H276.5C278.293 25.7447 279.745 24.2928 279.75 22.5002V16.2502H275.5C273.981 16.2502 272.75 15.0189 272.75 13.5002V9.25016H270.5C268.707 9.25565 267.255 10.7075 267.25 12.5002V22.5002Z" fill="#848484"/>
<path d="M321.954 23.0909C321.674 23.0909 321.433 22.9905 321.232 22.7898C321.032 22.589 320.931 22.3485 320.931 22.0682C320.931 21.7879 321.032 21.5473 321.232 21.3466C321.433 21.1458 321.674 21.0455 321.954 21.0455C322.234 21.0455 322.475 21.1458 322.676 21.3466C322.876 21.5473 322.977 21.7879 322.977 22.0682C322.977 22.2538 322.929 22.4242 322.835 22.5795C322.744 22.7348 322.621 22.8598 322.465 22.9545C322.314 23.0455 322.143 23.0909 321.954 23.0909ZM328.882 23.1818C328.041 23.1818 327.316 22.9962 326.706 22.625C326.1 22.25 325.632 21.7273 325.303 21.0568C324.977 20.3826 324.814 19.5985 324.814 18.7045C324.814 17.8106 324.977 17.0227 325.303 16.3409C325.632 15.6553 326.09 15.1212 326.678 14.7386C327.268 14.3523 327.958 14.1591 328.746 14.1591C329.2 14.1591 329.649 14.2348 330.092 14.3864C330.536 14.5379 330.939 14.7841 331.303 15.125C331.666 15.4621 331.956 15.9091 332.172 16.4659C332.388 17.0227 332.496 17.7083 332.496 18.5227V19.0909H325.768V17.9318H331.132C331.132 17.4394 331.034 17 330.837 16.6136C330.643 16.2273 330.367 15.9223 330.007 15.6989C329.651 15.4754 329.231 15.3636 328.746 15.3636C328.212 15.3636 327.75 15.4962 327.359 15.7614C326.973 16.0227 326.676 16.3636 326.467 16.7841C326.259 17.2045 326.155 17.6553 326.155 18.1364V18.9091C326.155 19.5682 326.268 20.1269 326.496 20.5852C326.727 21.0398 327.047 21.3864 327.456 21.625C327.865 21.8598 328.34 21.9773 328.882 21.9773C329.234 21.9773 329.553 21.928 329.837 21.8295C330.125 21.7273 330.373 21.5758 330.581 21.375C330.789 21.1705 330.95 20.9167 331.064 20.6136L332.359 20.9773C332.223 21.4167 331.994 21.803 331.672 22.1364C331.35 22.4659 330.952 22.7235 330.479 22.9091C330.005 23.0909 329.473 23.1818 328.882 23.1818ZM340.557 16.2273L339.353 16.5682C339.277 16.3674 339.165 16.1723 339.018 15.983C338.874 15.7898 338.677 15.6307 338.427 15.5057C338.177 15.3807 337.857 15.3182 337.466 15.3182C336.932 15.3182 336.487 15.4413 336.131 15.6875C335.779 15.9299 335.603 16.2386 335.603 16.6136C335.603 16.947 335.724 17.2102 335.966 17.4034C336.209 17.5966 336.588 17.7576 337.103 17.8864L338.398 18.2045C339.179 18.3939 339.76 18.6837 340.143 19.0739C340.525 19.4602 340.716 19.9583 340.716 20.5682C340.716 21.0682 340.573 21.5152 340.285 21.9091C340.001 22.303 339.603 22.6136 339.091 22.8409C338.58 23.0682 337.985 23.1818 337.307 23.1818C336.417 23.1818 335.68 22.9886 335.097 22.6023C334.514 22.2159 334.144 21.6515 333.989 20.9091L335.262 20.5909C335.383 21.0606 335.612 21.4129 335.949 21.6477C336.29 21.8826 336.735 22 337.285 22C337.91 22 338.406 21.8674 338.773 21.6023C339.144 21.3333 339.33 21.0114 339.33 20.6364C339.33 20.3333 339.224 20.0795 339.012 19.875C338.8 19.6667 338.474 19.5114 338.035 19.4091L336.58 19.0682C335.781 18.8788 335.194 18.5852 334.819 18.1875C334.448 17.786 334.262 17.2841 334.262 16.6818C334.262 16.1894 334.4 15.7538 334.677 15.375C334.957 14.9962 335.338 14.6989 335.819 14.483C336.304 14.267 336.853 14.1591 337.466 14.1591C338.33 14.1591 339.008 14.3485 339.501 14.7273C339.997 15.1061 340.349 15.6061 340.557 16.2273ZM343.916 11.3636V23H342.575V11.3636H343.916ZM346.212 23V14.2727H347.553V23H346.212ZM346.894 12.8182C346.632 12.8182 346.407 12.7292 346.217 12.5511C346.032 12.3731 345.939 12.1591 345.939 11.9091C345.939 11.6591 346.032 11.4451 346.217 11.267C346.407 11.089 346.632 11 346.894 11C347.155 11 347.378 11.089 347.564 11.267C347.753 11.4451 347.848 11.6591 347.848 11.9091C347.848 12.1591 347.753 12.3731 347.564 12.5511C347.378 12.7292 347.155 12.8182 346.894 12.8182ZM351.19 17.75V23H349.849V14.2727H351.144V15.6364H351.258C351.462 15.1932 351.773 14.8371 352.19 14.5682C352.606 14.2955 353.144 14.1591 353.803 14.1591C354.394 14.1591 354.911 14.2803 355.354 14.5227C355.798 14.7614 356.142 15.125 356.388 15.6136C356.635 16.0985 356.758 16.7121 356.758 17.4545V23H355.417V17.5455C355.417 16.8598 355.239 16.3258 354.883 15.9432C354.527 15.5568 354.038 15.3636 353.417 15.3636C352.989 15.3636 352.606 15.4564 352.269 15.642C351.936 15.8277 351.673 16.0985 351.479 16.4545C351.286 16.8106 351.19 17.2424 351.19 17.75ZM362.843 14.2727V15.4091H358.321V14.2727H362.843ZM359.639 12.1818H360.98V20.5C360.98 20.8788 361.035 21.1629 361.145 21.3523C361.258 21.5379 361.402 21.6629 361.576 21.7273C361.754 21.7879 361.942 21.8182 362.139 21.8182C362.287 21.8182 362.408 21.8106 362.503 21.7955C362.597 21.7765 362.673 21.7614 362.73 21.75L363.003 22.9545C362.912 22.9886 362.785 23.0227 362.622 23.0568C362.459 23.0947 362.253 23.1136 362.003 23.1136C361.624 23.1136 361.253 23.0322 360.889 22.8693C360.529 22.7064 360.23 22.4583 359.991 22.125C359.756 21.7917 359.639 21.3712 359.639 20.8636V12.1818ZM364.701 23V14.2727H365.996V15.5909H366.087C366.246 15.1591 366.534 14.8087 366.951 14.5398C367.367 14.2708 367.837 14.1364 368.36 14.1364C368.458 14.1364 368.581 14.1383 368.729 14.142C368.877 14.1458 368.988 14.1515 369.064 14.1591V15.5227C369.019 15.5114 368.915 15.4943 368.752 15.4716C368.593 15.4451 368.424 15.4318 368.246 15.4318C367.822 15.4318 367.443 15.5208 367.11 15.6989C366.78 15.8731 366.519 16.1155 366.326 16.4261C366.136 16.733 366.041 17.0833 366.041 17.4773V23H364.701ZM373.773 23.1818C372.955 23.1818 372.251 22.9886 371.66 22.6023C371.069 22.2159 370.614 21.6837 370.296 21.0057C369.978 20.3277 369.819 19.553 369.819 18.6818C369.819 17.7955 369.982 17.0133 370.308 16.3352C370.637 15.6534 371.095 15.1212 371.683 14.7386C372.273 14.3523 372.963 14.1591 373.751 14.1591C374.364 14.1591 374.917 14.2727 375.41 14.5C375.902 14.7273 376.306 15.0455 376.62 15.4545C376.934 15.8636 377.13 16.3409 377.205 16.8864H375.864C375.762 16.4886 375.535 16.1364 375.183 15.8295C374.834 15.5189 374.364 15.3636 373.773 15.3636C373.251 15.3636 372.792 15.5 372.398 15.7727C372.008 16.0417 371.703 16.4223 371.484 16.9148C371.268 17.4034 371.16 17.9773 371.16 18.6364C371.16 19.3106 371.266 19.8977 371.478 20.3977C371.694 20.8977 371.997 21.286 372.387 21.5625C372.781 21.839 373.243 21.9773 373.773 21.9773C374.122 21.9773 374.438 21.9167 374.722 21.7955C375.006 21.6742 375.247 21.5 375.444 21.2727C375.641 21.0455 375.781 20.7727 375.864 20.4545H377.205C377.13 20.9697 376.942 21.4337 376.643 21.8466C376.347 22.2557 375.955 22.5814 375.467 22.8239C374.982 23.0625 374.417 23.1818 373.773 23.1818ZM379.983 23.0909C379.703 23.0909 379.462 22.9905 379.261 22.7898C379.06 22.589 378.96 22.3485 378.96 22.0682C378.96 21.7879 379.06 21.5473 379.261 21.3466C379.462 21.1458 379.703 21.0455 379.983 21.0455C380.263 21.0455 380.504 21.1458 380.704 21.3466C380.905 21.5473 381.006 21.7879 381.006 22.0682C381.006 22.2538 380.958 22.4242 380.863 22.5795C380.773 22.7348 380.649 22.8598 380.494 22.9545C380.343 23.0455 380.172 23.0909 379.983 23.0909ZM383.252 14.2727H384.593V23.6364C384.593 24.1742 384.5 24.6402 384.314 25.0341C384.132 25.428 383.856 25.733 383.485 25.9489C383.117 26.1648 382.653 26.2727 382.093 26.2727C382.047 26.2727 382.002 26.2727 381.956 26.2727C381.911 26.2727 381.865 26.2727 381.82 26.2727V25.0227C381.865 25.0227 381.907 25.0227 381.945 25.0227C381.983 25.0227 382.025 25.0227 382.07 25.0227C382.479 25.0227 382.778 24.9015 382.968 24.6591C383.157 24.4205 383.252 24.0795 383.252 23.6364V14.2727ZM383.911 12.8182C383.65 12.8182 383.424 12.7292 383.235 12.5511C383.049 12.3731 382.956 12.1591 382.956 11.9091C382.956 11.6591 383.049 11.4451 383.235 11.267C383.424 11.089 383.65 11 383.911 11C384.172 11 384.396 11.089 384.581 11.267C384.771 11.4451 384.865 11.6591 384.865 11.9091C384.865 12.1591 384.771 12.3731 384.581 12.5511C384.396 12.7292 384.172 12.8182 383.911 12.8182ZM393.07 16.2273L391.866 16.5682C391.79 16.3674 391.678 16.1723 391.531 15.983C391.387 15.7898 391.19 15.6307 390.94 15.5057C390.69 15.3807 390.37 15.3182 389.98 15.3182C389.445 15.3182 389 15.4413 388.644 15.6875C388.292 15.9299 388.116 16.2386 388.116 16.6136C388.116 16.947 388.237 17.2102 388.48 17.4034C388.722 17.5966 389.101 17.7576 389.616 17.8864L390.911 18.2045C391.692 18.3939 392.273 18.6837 392.656 19.0739C393.038 19.4602 393.23 19.9583 393.23 20.5682C393.23 21.0682 393.086 21.5152 392.798 21.9091C392.514 22.303 392.116 22.6136 391.605 22.8409C391.093 23.0682 390.499 23.1818 389.82 23.1818C388.93 23.1818 388.194 22.9886 387.61 22.6023C387.027 22.2159 386.658 21.6515 386.502 20.9091L387.775 20.5909C387.896 21.0606 388.125 21.4129 388.463 21.6477C388.803 21.8826 389.249 22 389.798 22C390.423 22 390.919 21.8674 391.286 21.6023C391.658 21.3333 391.843 21.0114 391.843 20.6364C391.843 20.3333 391.737 20.0795 391.525 19.875C391.313 19.6667 390.987 19.5114 390.548 19.4091L389.093 19.0682C388.294 18.8788 387.707 18.5852 387.332 18.1875C386.961 17.786 386.775 17.2841 386.775 16.6818C386.775 16.1894 386.913 15.7538 387.19 15.375C387.47 14.9962 387.851 14.6989 388.332 14.483C388.817 14.267 389.366 14.1591 389.98 14.1591C390.843 14.1591 391.521 14.3485 392.014 14.7273C392.51 15.1061 392.862 15.6061 393.07 16.2273ZM398.633 23.1818C397.846 23.1818 397.154 22.9943 396.56 22.6193C395.969 22.2443 395.507 21.7197 395.173 21.0455C394.844 20.3712 394.679 19.5833 394.679 18.6818C394.679 17.7727 394.844 16.9792 395.173 16.3011C395.507 15.6231 395.969 15.0966 396.56 14.7216C397.154 14.3466 397.846 14.1591 398.633 14.1591C399.421 14.1591 400.111 14.3466 400.702 14.7216C401.296 15.0966 401.758 15.6231 402.088 16.3011C402.421 16.9792 402.588 17.7727 402.588 18.6818C402.588 19.5833 402.421 20.3712 402.088 21.0455C401.758 21.7197 401.296 22.2443 400.702 22.6193C400.111 22.9943 399.421 23.1818 398.633 23.1818ZM398.633 21.9773C399.232 21.9773 399.724 21.8239 400.111 21.517C400.497 21.2102 400.783 20.8068 400.969 20.3068C401.154 19.8068 401.247 19.2652 401.247 18.6818C401.247 18.0985 401.154 17.5549 400.969 17.0511C400.783 16.5473 400.497 16.1402 400.111 15.8295C399.724 15.5189 399.232 15.3636 398.633 15.3636C398.035 15.3636 397.543 15.5189 397.156 15.8295C396.77 16.1402 396.484 16.5473 396.298 17.0511C396.113 17.5549 396.02 18.0985 396.02 18.6818C396.02 19.2652 396.113 19.8068 396.298 20.3068C396.484 20.8068 396.77 21.2102 397.156 21.517C397.543 21.8239 398.035 21.9773 398.633 21.9773ZM405.816 17.75V23H404.475V14.2727H405.77V15.6364H405.884C406.089 15.1932 406.399 14.8371 406.816 14.5682C407.232 14.2955 407.77 14.1591 408.429 14.1591C409.02 14.1591 409.537 14.2803 409.981 14.5227C410.424 14.7614 410.768 15.125 411.015 15.6136C411.261 16.0985 411.384 16.7121 411.384 17.4545V23H410.043V17.5455C410.043 16.8598 409.865 16.3258 409.509 15.9432C409.153 15.5568 408.664 15.3636 408.043 15.3636C407.615 15.3636 407.232 15.4564 406.895 15.642C406.562 15.8277 406.299 16.0985 406.106 16.4545C405.912 16.8106 405.816 17.2424 405.816 17.75Z" fill="#3F3F3F"/>
<path d="M453.81 17.5004L456.28 15.031C456.35 14.9614 456.405 14.8786 456.443 14.7876C456.481 14.6965 456.5 14.599 456.5 14.5004C456.5 14.4019 456.481 14.3043 456.443 14.2132C456.405 14.1222 456.35 14.0395 456.28 13.9698C456.211 13.9001 456.128 13.8448 456.037 13.8071C455.946 13.7694 455.848 13.75 455.75 13.75C455.651 13.75 455.554 13.7694 455.463 13.8071C455.371 13.8448 455.289 13.9001 455.219 13.9698L452.75 16.4401L450.28 13.9698C450.14 13.8291 449.949 13.75 449.75 13.75C449.551 13.75 449.36 13.8291 449.219 13.9698C449.078 14.1105 448.999 14.3014 448.999 14.5004C448.999 14.6994 449.078 14.8903 449.219 15.031L451.689 17.5004L449.219 19.9698C449.149 20.0395 449.094 20.1222 449.056 20.2132C449.019 20.3043 448.999 20.4019 448.999 20.5004C448.999 20.599 449.019 20.6965 449.056 20.7876C449.094 20.8786 449.149 20.9614 449.219 21.031C449.289 21.1007 449.371 21.156 449.463 21.1937C449.554 21.2314 449.651 21.2508 449.75 21.2508C449.848 21.2508 449.946 21.2314 450.037 21.1937C450.128 21.156 450.211 21.1007 450.28 21.031L452.75 18.5607L455.219 21.031C455.289 21.1007 455.371 21.156 455.463 21.1937C455.554 21.2314 455.651 21.2508 455.75 21.2508C455.848 21.2508 455.946 21.2314 456.037 21.1937C456.128 21.156 456.211 21.1007 456.28 21.031C456.35 20.9614 456.405 20.8786 456.443 20.7876C456.481 20.6965 456.5 20.599 456.5 20.5004C456.5 20.4019 456.481 20.3043 456.443 20.2132C456.405 20.1222 456.35 20.0395 456.28 19.9698L453.81 17.5004Z" fill="#3F3F3F"/>
</g>
<g clip-path="url(#clip2_2431_4816)">
<path fill-rule="evenodd" clip-rule="evenodd" d="M530.03 14.9402L523.03 7.94016C522.883 7.81389 522.694 7.74625 522.5 7.75016H519.5C516.877 7.75016 514.75 9.87681 514.75 12.5002V22.5002C514.75 25.1235 516.877 27.2502 519.5 27.2502H525.5C528.123 27.2502 530.25 25.1235 530.25 22.5002V15.5002C530.253 15.2918 530.174 15.0905 530.03 14.9402ZM523.25 10.2902L527.71 14.7502H524.5C523.81 14.7502 523.25 14.1905 523.25 13.5002V10.2902ZM516.25 22.5002C516.255 24.2928 517.707 25.7447 519.5 25.7502H525.5C527.293 25.7447 528.745 24.2928 528.75 22.5002V16.2502H524.5C522.981 16.2502 521.75 15.0189 521.75 13.5002V9.25016H519.5C517.707 9.25565 516.255 10.7075 516.25 12.5002V22.5002Z" fill="#848484"/>
<path d="M570.954 23.0909C570.674 23.0909 570.433 22.9905 570.232 22.7898C570.032 22.589 569.931 22.3485 569.931 22.0682C569.931 21.7879 570.032 21.5473 570.232 21.3466C570.433 21.1458 570.674 21.0455 570.954 21.0455C571.234 21.0455 571.475 21.1458 571.676 21.3466C571.876 21.5473 571.977 21.7879 571.977 22.0682C571.977 22.2538 571.929 22.4242 571.835 22.5795C571.744 22.7348 571.621 22.8598 571.465 22.9545C571.314 23.0455 571.143 23.0909 570.954 23.0909ZM577.882 23.1818C577.041 23.1818 576.316 22.9962 575.706 22.625C575.1 22.25 574.632 21.7273 574.303 21.0568C573.977 20.3826 573.814 19.5985 573.814 18.7045C573.814 17.8106 573.977 17.0227 574.303 16.3409C574.632 15.6553 575.09 15.1212 575.678 14.7386C576.268 14.3523 576.958 14.1591 577.746 14.1591C578.2 14.1591 578.649 14.2348 579.092 14.3864C579.536 14.5379 579.939 14.7841 580.303 15.125C580.666 15.4621 580.956 15.9091 581.172 16.4659C581.388 17.0227 581.496 17.7083 581.496 18.5227V19.0909H574.768V17.9318H580.132C580.132 17.4394 580.034 17 579.837 16.6136C579.643 16.2273 579.367 15.9223 579.007 15.6989C578.651 15.4754 578.231 15.3636 577.746 15.3636C577.212 15.3636 576.75 15.4962 576.359 15.7614C575.973 16.0227 575.676 16.3636 575.467 16.7841C575.259 17.2045 575.155 17.6553 575.155 18.1364V18.9091C575.155 19.5682 575.268 20.1269 575.496 20.5852C575.727 21.0398 576.047 21.3864 576.456 21.625C576.865 21.8598 577.34 21.9773 577.882 21.9773C578.234 21.9773 578.553 21.928 578.837 21.8295C579.125 21.7273 579.373 21.5758 579.581 21.375C579.789 21.1705 579.95 20.9167 580.064 20.6136L581.359 20.9773C581.223 21.4167 580.994 21.803 580.672 22.1364C580.35 22.4659 579.952 22.7235 579.479 22.9091C579.005 23.0909 578.473 23.1818 577.882 23.1818ZM589.557 16.2273L588.353 16.5682C588.277 16.3674 588.165 16.1723 588.018 15.983C587.874 15.7898 587.677 15.6307 587.427 15.5057C587.177 15.3807 586.857 15.3182 586.466 15.3182C585.932 15.3182 585.487 15.4413 585.131 15.6875C584.779 15.9299 584.603 16.2386 584.603 16.6136C584.603 16.947 584.724 17.2102 584.966 17.4034C585.209 17.5966 585.588 17.7576 586.103 17.8864L587.398 18.2045C588.179 18.3939 588.76 18.6837 589.143 19.0739C589.525 19.4602 589.716 19.9583 589.716 20.5682C589.716 21.0682 589.573 21.5152 589.285 21.9091C589.001 22.303 588.603 22.6136 588.091 22.8409C587.58 23.0682 586.985 23.1818 586.307 23.1818C585.417 23.1818 584.68 22.9886 584.097 22.6023C583.514 22.2159 583.144 21.6515 582.989 20.9091L584.262 20.5909C584.383 21.0606 584.612 21.4129 584.949 21.6477C585.29 21.8826 585.735 22 586.285 22C586.91 22 587.406 21.8674 587.773 21.6023C588.144 21.3333 588.33 21.0114 588.33 20.6364C588.33 20.3333 588.224 20.0795 588.012 19.875C587.8 19.6667 587.474 19.5114 587.035 19.4091L585.58 19.0682C584.781 18.8788 584.194 18.5852 583.819 18.1875C583.448 17.786 583.262 17.2841 583.262 16.6818C583.262 16.1894 583.4 15.7538 583.677 15.375C583.957 14.9962 584.338 14.6989 584.819 14.483C585.304 14.267 585.853 14.1591 586.466 14.1591C587.33 14.1591 588.008 14.3485 588.501 14.7273C588.997 15.1061 589.349 15.6061 589.557 16.2273ZM592.916 11.3636V23H591.575V11.3636H592.916ZM595.212 23V14.2727H596.553V23H595.212ZM595.894 12.8182C595.632 12.8182 595.407 12.7292 595.217 12.5511C595.032 12.3731 594.939 12.1591 594.939 11.9091C594.939 11.6591 595.032 11.4451 595.217 11.267C595.407 11.089 595.632 11 595.894 11C596.155 11 596.378 11.089 596.564 11.267C596.753 11.4451 596.848 11.6591 596.848 11.9091C596.848 12.1591 596.753 12.3731 596.564 12.5511C596.378 12.7292 596.155 12.8182 595.894 12.8182ZM600.19 17.75V23H598.849V14.2727H600.144V15.6364H600.258C600.462 15.1932 600.773 14.8371 601.19 14.5682C601.606 14.2955 602.144 14.1591 602.803 14.1591C603.394 14.1591 603.911 14.2803 604.354 14.5227C604.798 14.7614 605.142 15.125 605.388 15.6136C605.635 16.0985 605.758 16.7121 605.758 17.4545V23H604.417V17.5455C604.417 16.8598 604.239 16.3258 603.883 15.9432C603.527 15.5568 603.038 15.3636 602.417 15.3636C601.989 15.3636 601.606 15.4564 601.269 15.642C600.936 15.8277 600.673 16.0985 600.479 16.4545C600.286 16.8106 600.19 17.2424 600.19 17.75ZM611.843 14.2727V15.4091H607.321V14.2727H611.843ZM608.639 12.1818H609.98V20.5C609.98 20.8788 610.035 21.1629 610.145 21.3523C610.258 21.5379 610.402 21.6629 610.576 21.7273C610.754 21.7879 610.942 21.8182 611.139 21.8182C611.287 21.8182 611.408 21.8106 611.503 21.7955C611.597 21.7765 611.673 21.7614 611.73 21.75L612.003 22.9545C611.912 22.9886 611.785 23.0227 611.622 23.0568C611.459 23.0947 611.253 23.1136 611.003 23.1136C610.624 23.1136 610.253 23.0322 609.889 22.8693C609.529 22.7064 609.23 22.4583 608.991 22.125C608.756 21.7917 608.639 21.3712 608.639 20.8636V12.1818ZM613.701 23V14.2727H614.996V15.5909H615.087C615.246 15.1591 615.534 14.8087 615.951 14.5398C616.367 14.2708 616.837 14.1364 617.36 14.1364C617.458 14.1364 617.581 14.1383 617.729 14.142C617.877 14.1458 617.988 14.1515 618.064 14.1591V15.5227C618.019 15.5114 617.915 15.4943 617.752 15.4716C617.593 15.4451 617.424 15.4318 617.246 15.4318C616.822 15.4318 616.443 15.5208 616.11 15.6989C615.78 15.8731 615.519 16.1155 615.326 16.4261C615.136 16.733 615.041 17.0833 615.041 17.4773V23H613.701ZM622.773 23.1818C621.955 23.1818 621.251 22.9886 620.66 22.6023C620.069 22.2159 619.614 21.6837 619.296 21.0057C618.978 20.3277 618.819 19.553 618.819 18.6818C618.819 17.7955 618.982 17.0133 619.308 16.3352C619.637 15.6534 620.095 15.1212 620.683 14.7386C621.273 14.3523 621.963 14.1591 622.751 14.1591C623.364 14.1591 623.917 14.2727 624.41 14.5C624.902 14.7273 625.306 15.0455 625.62 15.4545C625.934 15.8636 626.13 16.3409 626.205 16.8864H624.864C624.762 16.4886 624.535 16.1364 624.183 15.8295C623.834 15.5189 623.364 15.3636 622.773 15.3636C622.251 15.3636 621.792 15.5 621.398 15.7727C621.008 16.0417 620.703 16.4223 620.484 16.9148C620.268 17.4034 620.16 17.9773 620.16 18.6364C620.16 19.3106 620.266 19.8977 620.478 20.3977C620.694 20.8977 620.997 21.286 621.387 21.5625C621.781 21.839 622.243 21.9773 622.773 21.9773C623.122 21.9773 623.438 21.9167 623.722 21.7955C624.006 21.6742 624.247 21.5 624.444 21.2727C624.641 21.0455 624.781 20.7727 624.864 20.4545H626.205C626.13 20.9697 625.942 21.4337 625.643 21.8466C625.347 22.2557 624.955 22.5814 624.467 22.8239C623.982 23.0625 623.417 23.1818 622.773 23.1818ZM628.983 23.0909C628.703 23.0909 628.462 22.9905 628.261 22.7898C628.06 22.589 627.96 22.3485 627.96 22.0682C627.96 21.7879 628.06 21.5473 628.261 21.3466C628.462 21.1458 628.703 21.0455 628.983 21.0455C629.263 21.0455 629.504 21.1458 629.704 21.3466C629.905 21.5473 630.006 21.7879 630.006 22.0682C630.006 22.2538 629.958 22.4242 629.863 22.5795C629.773 22.7348 629.649 22.8598 629.494 22.9545C629.343 23.0455 629.172 23.0909 628.983 23.0909ZM632.252 14.2727H633.593V23.6364C633.593 24.1742 633.5 24.6402 633.314 25.0341C633.132 25.428 632.856 25.733 632.485 25.9489C632.117 26.1648 631.653 26.2727 631.093 26.2727C631.047 26.2727 631.002 26.2727 630.956 26.2727C630.911 26.2727 630.865 26.2727 630.82 26.2727V25.0227C630.865 25.0227 630.907 25.0227 630.945 25.0227C630.983 25.0227 631.025 25.0227 631.07 25.0227C631.479 25.0227 631.778 24.9015 631.968 24.6591C632.157 24.4205 632.252 24.0795 632.252 23.6364V14.2727ZM632.911 12.8182C632.65 12.8182 632.424 12.7292 632.235 12.5511C632.049 12.3731 631.956 12.1591 631.956 11.9091C631.956 11.6591 632.049 11.4451 632.235 11.267C632.424 11.089 632.65 11 632.911 11C633.172 11 633.396 11.089 633.581 11.267C633.771 11.4451 633.865 11.6591 633.865 11.9091C633.865 12.1591 633.771 12.3731 633.581 12.5511C633.396 12.7292 633.172 12.8182 632.911 12.8182ZM642.07 16.2273L640.866 16.5682C640.79 16.3674 640.678 16.1723 640.531 15.983C640.387 15.7898 640.19 15.6307 639.94 15.5057C639.69 15.3807 639.37 15.3182 638.98 15.3182C638.445 15.3182 638 15.4413 637.644 15.6875C637.292 15.9299 637.116 16.2386 637.116 16.6136C637.116 16.947 637.237 17.2102 637.48 17.4034C637.722 17.5966 638.101 17.7576 638.616 17.8864L639.911 18.2045C640.692 18.3939 641.273 18.6837 641.656 19.0739C642.038 19.4602 642.23 19.9583 642.23 20.5682C642.23 21.0682 642.086 21.5152 641.798 21.9091C641.514 22.303 641.116 22.6136 640.605 22.8409C640.093 23.0682 639.499 23.1818 638.82 23.1818C637.93 23.1818 637.194 22.9886 636.61 22.6023C636.027 22.2159 635.658 21.6515 635.502 20.9091L636.775 20.5909C636.896 21.0606 637.125 21.4129 637.463 21.6477C637.803 21.8826 638.249 22 638.798 22C639.423 22 639.919 21.8674 640.286 21.6023C640.658 21.3333 640.843 21.0114 640.843 20.6364C640.843 20.3333 640.737 20.0795 640.525 19.875C640.313 19.6667 639.987 19.5114 639.548 19.4091L638.093 19.0682C637.294 18.8788 636.707 18.5852 636.332 18.1875C635.961 17.786 635.775 17.2841 635.775 16.6818C635.775 16.1894 635.913 15.7538 636.19 15.375C636.47 14.9962 636.851 14.6989 637.332 14.483C637.817 14.267 638.366 14.1591 638.98 14.1591C639.843 14.1591 640.521 14.3485 641.014 14.7273C641.51 15.1061 641.862 15.6061 642.07 16.2273ZM647.633 23.1818C646.846 23.1818 646.154 22.9943 645.56 22.6193C644.969 22.2443 644.507 21.7197 644.173 21.0455C643.844 20.3712 643.679 19.5833 643.679 18.6818C643.679 17.7727 643.844 16.9792 644.173 16.3011C644.507 15.6231 644.969 15.0966 645.56 14.7216C646.154 14.3466 646.846 14.1591 647.633 14.1591C648.421 14.1591 649.111 14.3466 649.702 14.7216C650.296 15.0966 650.758 15.6231 651.088 16.3011C651.421 16.9792 651.588 17.7727 651.588 18.6818C651.588 19.5833 651.421 20.3712 651.088 21.0455C650.758 21.7197 650.296 22.2443 649.702 22.6193C649.111 22.9943 648.421 23.1818 647.633 23.1818ZM647.633 21.9773C648.232 21.9773 648.724 21.8239 649.111 21.517C649.497 21.2102 649.783 20.8068 649.969 20.3068C650.154 19.8068 650.247 19.2652 650.247 18.6818C650.247 18.0985 650.154 17.5549 649.969 17.0511C649.783 16.5473 649.497 16.1402 649.111 15.8295C648.724 15.5189 648.232 15.3636 647.633 15.3636C647.035 15.3636 646.543 15.5189 646.156 15.8295C645.77 16.1402 645.484 16.5473 645.298 17.0511C645.113 17.5549 645.02 18.0985 645.02 18.6818C645.02 19.2652 645.113 19.8068 645.298 20.3068C645.484 20.8068 645.77 21.2102 646.156 21.517C646.543 21.8239 647.035 21.9773 647.633 21.9773ZM654.816 17.75V23H653.475V14.2727H654.77V15.6364H654.884C655.089 15.1932 655.399 14.8371 655.816 14.5682C656.232 14.2955 656.77 14.1591 657.429 14.1591C658.02 14.1591 658.537 14.2803 658.981 14.5227C659.424 14.7614 659.768 15.125 660.015 15.6136C660.261 16.0985 660.384 16.7121 660.384 17.4545V23H659.043V17.5455C659.043 16.8598 658.865 16.3258 658.509 15.9432C658.153 15.5568 657.664 15.3636 657.043 15.3636C656.615 15.3636 656.232 15.4564 655.895 15.642C655.562 15.8277 655.299 16.0985 655.106 16.4545C654.912 16.8106 654.816 17.2424 654.816 17.75Z" fill="#3F3F3F"/>
<path d="M702.81 17.5004L705.28 15.031C705.35 14.9614 705.405 14.8786 705.443 14.7876C705.481 14.6965 705.5 14.599 705.5 14.5004C705.5 14.4019 705.481 14.3043 705.443 14.2132C705.405 14.1222 705.35 14.0395 705.28 13.9698C705.211 13.9001 705.128 13.8448 705.037 13.8071C704.946 13.7694 704.848 13.75 704.75 13.75C704.651 13.75 704.554 13.7694 704.463 13.8071C704.371 13.8448 704.289 13.9001 704.219 13.9698L701.75 16.4401L699.28 13.9698C699.14 13.8291 698.949 13.75 698.75 13.75C698.551 13.75 698.36 13.8291 698.219 13.9698C698.078 14.1105 697.999 14.3014 697.999 14.5004C697.999 14.6994 698.078 14.8903 698.219 15.031L700.689 17.5004L698.219 19.9698C698.149 20.0395 698.094 20.1222 698.056 20.2132C698.019 20.3043 697.999 20.4019 697.999 20.5004C697.999 20.599 698.019 20.6965 698.056 20.7876C698.094 20.8786 698.149 20.9614 698.219 21.031C698.289 21.1007 698.371 21.156 698.463 21.1937C698.554 21.2314 698.651 21.2508 698.75 21.2508C698.848 21.2508 698.946 21.2314 699.037 21.1937C699.128 21.156 699.211 21.1007 699.28 21.031L701.75 18.5607L704.219 21.031C704.289 21.1007 704.371 21.156 704.463 21.1937C704.554 21.2314 704.651 21.2508 704.75 21.2508C704.848 21.2508 704.946 21.2314 705.037 21.1937C705.128 21.156 705.211 21.1007 705.28 21.031C705.35 20.9614 705.405 20.8786 705.443 20.7876C705.481 20.6965 705.5 20.599 705.5 20.5004C705.5 20.4019 705.481 20.3043 705.443 20.2132C705.405 20.1222 705.35 20.0395 705.28 19.9698L702.81 17.5004Z" fill="#3F3F3F"/>
</g>
<g clip-path="url(#clip3_2431_4816)">
<path fill-rule="evenodd" clip-rule="evenodd" d="M779.03 14.9402L772.03 7.94016C771.883 7.81389 771.694 7.74625 771.5 7.75016H768.5C765.877 7.75016 763.75 9.87681 763.75 12.5002V22.5002C763.75 25.1235 765.877 27.2502 768.5 27.2502H774.5C777.123 27.2502 779.25 25.1235 779.25 22.5002V15.5002C779.253 15.2918 779.174 15.0905 779.03 14.9402ZM772.25 10.2902L776.71 14.7502H773.5C772.81 14.7502 772.25 14.1905 772.25 13.5002V10.2902ZM765.25 22.5002C765.255 24.2928 766.707 25.7447 768.5 25.7502H774.5C776.293 25.7447 777.745 24.2928 777.75 22.5002V16.2502H773.5C771.981 16.2502 770.75 15.0189 770.75 13.5002V9.25016H768.5C766.707 9.25565 765.255 10.7075 765.25 12.5002V22.5002Z" fill="#848484"/>
<path d="M819.954 23.0909C819.674 23.0909 819.433 22.9905 819.232 22.7898C819.032 22.589 818.931 22.3485 818.931 22.0682C818.931 21.7879 819.032 21.5473 819.232 21.3466C819.433 21.1458 819.674 21.0455 819.954 21.0455C820.234 21.0455 820.475 21.1458 820.676 21.3466C820.876 21.5473 820.977 21.7879 820.977 22.0682C820.977 22.2538 820.929 22.4242 820.835 22.5795C820.744 22.7348 820.621 22.8598 820.465 22.9545C820.314 23.0455 820.143 23.0909 819.954 23.0909ZM826.882 23.1818C826.041 23.1818 825.316 22.9962 824.706 22.625C824.1 22.25 823.632 21.7273 823.303 21.0568C822.977 20.3826 822.814 19.5985 822.814 18.7045C822.814 17.8106 822.977 17.0227 823.303 16.3409C823.632 15.6553 824.09 15.1212 824.678 14.7386C825.268 14.3523 825.958 14.1591 826.746 14.1591C827.2 14.1591 827.649 14.2348 828.092 14.3864C828.536 14.5379 828.939 14.7841 829.303 15.125C829.666 15.4621 829.956 15.9091 830.172 16.4659C830.388 17.0227 830.496 17.7083 830.496 18.5227V19.0909H823.768V17.9318H829.132C829.132 17.4394 829.034 17 828.837 16.6136C828.643 16.2273 828.367 15.9223 828.007 15.6989C827.651 15.4754 827.231 15.3636 826.746 15.3636C826.212 15.3636 825.75 15.4962 825.359 15.7614C824.973 16.0227 824.676 16.3636 824.467 16.7841C824.259 17.2045 824.155 17.6553 824.155 18.1364V18.9091C824.155 19.5682 824.268 20.1269 824.496 20.5852C824.727 21.0398 825.047 21.3864 825.456 21.625C825.865 21.8598 826.34 21.9773 826.882 21.9773C827.234 21.9773 827.553 21.928 827.837 21.8295C828.125 21.7273 828.373 21.5758 828.581 21.375C828.789 21.1705 828.95 20.9167 829.064 20.6136L830.359 20.9773C830.223 21.4167 829.994 21.803 829.672 22.1364C829.35 22.4659 828.952 22.7235 828.479 22.9091C828.005 23.0909 827.473 23.1818 826.882 23.1818ZM838.557 16.2273L837.353 16.5682C837.277 16.3674 837.165 16.1723 837.018 15.983C836.874 15.7898 836.677 15.6307 836.427 15.5057C836.177 15.3807 835.857 15.3182 835.466 15.3182C834.932 15.3182 834.487 15.4413 834.131 15.6875C833.779 15.9299 833.603 16.2386 833.603 16.6136C833.603 16.947 833.724 17.2102 833.966 17.4034C834.209 17.5966 834.588 17.7576 835.103 17.8864L836.398 18.2045C837.179 18.3939 837.76 18.6837 838.143 19.0739C838.525 19.4602 838.716 19.9583 838.716 20.5682C838.716 21.0682 838.573 21.5152 838.285 21.9091C838.001 22.303 837.603 22.6136 837.091 22.8409C836.58 23.0682 835.985 23.1818 835.307 23.1818C834.417 23.1818 833.68 22.9886 833.097 22.6023C832.514 22.2159 832.144 21.6515 831.989 20.9091L833.262 20.5909C833.383 21.0606 833.612 21.4129 833.949 21.6477C834.29 21.8826 834.735 22 835.285 22C835.91 22 836.406 21.8674 836.773 21.6023C837.144 21.3333 837.33 21.0114 837.33 20.6364C837.33 20.3333 837.224 20.0795 837.012 19.875C836.8 19.6667 836.474 19.5114 836.035 19.4091L834.58 19.0682C833.781 18.8788 833.194 18.5852 832.819 18.1875C832.448 17.786 832.262 17.2841 832.262 16.6818C832.262 16.1894 832.4 15.7538 832.677 15.375C832.957 14.9962 833.338 14.6989 833.819 14.483C834.304 14.267 834.853 14.1591 835.466 14.1591C836.33 14.1591 837.008 14.3485 837.501 14.7273C837.997 15.1061 838.349 15.6061 838.557 16.2273ZM841.916 11.3636V23H840.575V11.3636H841.916ZM844.212 23V14.2727H845.553V23H844.212ZM844.894 12.8182C844.632 12.8182 844.407 12.7292 844.217 12.5511C844.032 12.3731 843.939 12.1591 843.939 11.9091C843.939 11.6591 844.032 11.4451 844.217 11.267C844.407 11.089 844.632 11 844.894 11C845.155 11 845.378 11.089 845.564 11.267C845.753 11.4451 845.848 11.6591 845.848 11.9091C845.848 12.1591 845.753 12.3731 845.564 12.5511C845.378 12.7292 845.155 12.8182 844.894 12.8182ZM849.19 17.75V23H847.849V14.2727H849.144V15.6364H849.258C849.462 15.1932 849.773 14.8371 850.19 14.5682C850.606 14.2955 851.144 14.1591 851.803 14.1591C852.394 14.1591 852.911 14.2803 853.354 14.5227C853.798 14.7614 854.142 15.125 854.388 15.6136C854.635 16.0985 854.758 16.7121 854.758 17.4545V23H853.417V17.5455C853.417 16.8598 853.239 16.3258 852.883 15.9432C852.527 15.5568 852.038 15.3636 851.417 15.3636C850.989 15.3636 850.606 15.4564 850.269 15.642C849.936 15.8277 849.673 16.0985 849.479 16.4545C849.286 16.8106 849.19 17.2424 849.19 17.75ZM860.843 14.2727V15.4091H856.321V14.2727H860.843ZM857.639 12.1818H858.98V20.5C858.98 20.8788 859.035 21.1629 859.145 21.3523C859.258 21.5379 859.402 21.6629 859.576 21.7273C859.754 21.7879 859.942 21.8182 860.139 21.8182C860.287 21.8182 860.408 21.8106 860.503 21.7955C860.597 21.7765 860.673 21.7614 860.73 21.75L861.003 22.9545C860.912 22.9886 860.785 23.0227 860.622 23.0568C860.459 23.0947 860.253 23.1136 860.003 23.1136C859.624 23.1136 859.253 23.0322 858.889 22.8693C858.529 22.7064 858.23 22.4583 857.991 22.125C857.756 21.7917 857.639 21.3712 857.639 20.8636V12.1818ZM862.701 23V14.2727H863.996V15.5909H864.087C864.246 15.1591 864.534 14.8087 864.951 14.5398C865.367 14.2708 865.837 14.1364 866.36 14.1364C866.458 14.1364 866.581 14.1383 866.729 14.142C866.877 14.1458 866.988 14.1515 867.064 14.1591V15.5227C867.019 15.5114 866.915 15.4943 866.752 15.4716C866.593 15.4451 866.424 15.4318 866.246 15.4318C865.822 15.4318 865.443 15.5208 865.11 15.6989C864.78 15.8731 864.519 16.1155 864.326 16.4261C864.136 16.733 864.041 17.0833 864.041 17.4773V23H862.701ZM871.773 23.1818C870.955 23.1818 870.251 22.9886 869.66 22.6023C869.069 22.2159 868.614 21.6837 868.296 21.0057C867.978 20.3277 867.819 19.553 867.819 18.6818C867.819 17.7955 867.982 17.0133 868.308 16.3352C868.637 15.6534 869.095 15.1212 869.683 14.7386C870.273 14.3523 870.963 14.1591 871.751 14.1591C872.364 14.1591 872.917 14.2727 873.41 14.5C873.902 14.7273 874.306 15.0455 874.62 15.4545C874.934 15.8636 875.13 16.3409 875.205 16.8864H873.864C873.762 16.4886 873.535 16.1364 873.183 15.8295C872.834 15.5189 872.364 15.3636 871.773 15.3636C871.251 15.3636 870.792 15.5 870.398 15.7727C870.008 16.0417 869.703 16.4223 869.484 16.9148C869.268 17.4034 869.16 17.9773 869.16 18.6364C869.16 19.3106 869.266 19.8977 869.478 20.3977C869.694 20.8977 869.997 21.286 870.387 21.5625C870.781 21.839 871.243 21.9773 871.773 21.9773C872.122 21.9773 872.438 21.9167 872.722 21.7955C873.006 21.6742 873.247 21.5 873.444 21.2727C873.641 21.0455 873.781 20.7727 873.864 20.4545H875.205C875.13 20.9697 874.942 21.4337 874.643 21.8466C874.347 22.2557 873.955 22.5814 873.467 22.8239C872.982 23.0625 872.417 23.1818 871.773 23.1818ZM877.983 23.0909C877.703 23.0909 877.462 22.9905 877.261 22.7898C877.06 22.589 876.96 22.3485 876.96 22.0682C876.96 21.7879 877.06 21.5473 877.261 21.3466C877.462 21.1458 877.703 21.0455 877.983 21.0455C878.263 21.0455 878.504 21.1458 878.704 21.3466C878.905 21.5473 879.006 21.7879 879.006 22.0682C879.006 22.2538 878.958 22.4242 878.863 22.5795C878.773 22.7348 878.649 22.8598 878.494 22.9545C878.343 23.0455 878.172 23.0909 877.983 23.0909ZM881.252 14.2727H882.593V23.6364C882.593 24.1742 882.5 24.6402 882.314 25.0341C882.132 25.428 881.856 25.733 881.485 25.9489C881.117 26.1648 880.653 26.2727 880.093 26.2727C880.047 26.2727 880.002 26.2727 879.956 26.2727C879.911 26.2727 879.865 26.2727 879.82 26.2727V25.0227C879.865 25.0227 879.907 25.0227 879.945 25.0227C879.983 25.0227 880.025 25.0227 880.07 25.0227C880.479 25.0227 880.778 24.9015 880.968 24.6591C881.157 24.4205 881.252 24.0795 881.252 23.6364V14.2727ZM881.911 12.8182C881.65 12.8182 881.424 12.7292 881.235 12.5511C881.049 12.3731 880.956 12.1591 880.956 11.9091C880.956 11.6591 881.049 11.4451 881.235 11.267C881.424 11.089 881.65 11 881.911 11C882.172 11 882.396 11.089 882.581 11.267C882.771 11.4451 882.865 11.6591 882.865 11.9091C882.865 12.1591 882.771 12.3731 882.581 12.5511C882.396 12.7292 882.172 12.8182 881.911 12.8182ZM891.07 16.2273L889.866 16.5682C889.79 16.3674 889.678 16.1723 889.531 15.983C889.387 15.7898 889.19 15.6307 888.94 15.5057C888.69 15.3807 888.37 15.3182 887.98 15.3182C887.445 15.3182 887 15.4413 886.644 15.6875C886.292 15.9299 886.116 16.2386 886.116 16.6136C886.116 16.947 886.237 17.2102 886.48 17.4034C886.722 17.5966 887.101 17.7576 887.616 17.8864L888.911 18.2045C889.692 18.3939 890.273 18.6837 890.656 19.0739C891.038 19.4602 891.23 19.9583 891.23 20.5682C891.23 21.0682 891.086 21.5152 890.798 21.9091C890.514 22.303 890.116 22.6136 889.605 22.8409C889.093 23.0682 888.499 23.1818 887.82 23.1818C886.93 23.1818 886.194 22.9886 885.61 22.6023C885.027 22.2159 884.658 21.6515 884.502 20.9091L885.775 20.5909C885.896 21.0606 886.125 21.4129 886.463 21.6477C886.803 21.8826 887.249 22 887.798 22C888.423 22 888.919 21.8674 889.286 21.6023C889.658 21.3333 889.843 21.0114 889.843 20.6364C889.843 20.3333 889.737 20.0795 889.525 19.875C889.313 19.6667 888.987 19.5114 888.548 19.4091L887.093 19.0682C886.294 18.8788 885.707 18.5852 885.332 18.1875C884.961 17.786 884.775 17.2841 884.775 16.6818C884.775 16.1894 884.913 15.7538 885.19 15.375C885.47 14.9962 885.851 14.6989 886.332 14.483C886.817 14.267 887.366 14.1591 887.98 14.1591C888.843 14.1591 889.521 14.3485 890.014 14.7273C890.51 15.1061 890.862 15.6061 891.07 16.2273ZM896.633 23.1818C895.846 23.1818 895.154 22.9943 894.56 22.6193C893.969 22.2443 893.507 21.7197 893.173 21.0455C892.844 20.3712 892.679 19.5833 892.679 18.6818C892.679 17.7727 892.844 16.9792 893.173 16.3011C893.507 15.6231 893.969 15.0966 894.56 14.7216C895.154 14.3466 895.846 14.1591 896.633 14.1591C897.421 14.1591 898.111 14.3466 898.702 14.7216C899.296 15.0966 899.758 15.6231 900.088 16.3011C900.421 16.9792 900.588 17.7727 900.588 18.6818C900.588 19.5833 900.421 20.3712 900.088 21.0455C899.758 21.7197 899.296 22.2443 898.702 22.6193C898.111 22.9943 897.421 23.1818 896.633 23.1818ZM896.633 21.9773C897.232 21.9773 897.724 21.8239 898.111 21.517C898.497 21.2102 898.783 20.8068 898.969 20.3068C899.154 19.8068 899.247 19.2652 899.247 18.6818C899.247 18.0985 899.154 17.5549 898.969 17.0511C898.783 16.5473 898.497 16.1402 898.111 15.8295C897.724 15.5189 897.232 15.3636 896.633 15.3636C896.035 15.3636 895.543 15.5189 895.156 15.8295C894.77 16.1402 894.484 16.5473 894.298 17.0511C894.113 17.5549 894.02 18.0985 894.02 18.6818C894.02 19.2652 894.113 19.8068 894.298 20.3068C894.484 20.8068 894.77 21.2102 895.156 21.517C895.543 21.8239 896.035 21.9773 896.633 21.9773ZM903.816 17.75V23H902.475V14.2727H903.77V15.6364H903.884C904.089 15.1932 904.399 14.8371 904.816 14.5682C905.232 14.2955 905.77 14.1591 906.429 14.1591C907.02 14.1591 907.537 14.2803 907.981 14.5227C908.424 14.7614 908.768 15.125 909.015 15.6136C909.261 16.0985 909.384 16.7121 909.384 17.4545V23H908.043V17.5455C908.043 16.8598 907.865 16.3258 907.509 15.9432C907.153 15.5568 906.664 15.3636 906.043 15.3636C905.615 15.3636 905.232 15.4564 904.895 15.642C904.562 15.8277 904.299 16.0985 904.106 16.4545C903.912 16.8106 903.816 17.2424 903.816 17.75Z" fill="#3F3F3F"/>
<path d="M951.81 17.5004L954.28 15.031C954.35 14.9614 954.405 14.8786 954.443 14.7876C954.481 14.6965 954.5 14.599 954.5 14.5004C954.5 14.4019 954.481 14.3043 954.443 14.2132C954.405 14.1222 954.35 14.0395 954.28 13.9698C954.211 13.9001 954.128 13.8448 954.037 13.8071C953.946 13.7694 953.848 13.75 953.75 13.75C953.651 13.75 953.554 13.7694 953.463 13.8071C953.371 13.8448 953.289 13.9001 953.219 13.9698L950.75 16.4401L948.28 13.9698C948.14 13.8291 947.949 13.75 947.75 13.75C947.551 13.75 947.36 13.8291 947.219 13.9698C947.078 14.1105 946.999 14.3014 946.999 14.5004C946.999 14.6994 947.078 14.8903 947.219 15.031L949.689 17.5004L947.219 19.9698C947.149 20.0395 947.094 20.1222 947.056 20.2132C947.019 20.3043 946.999 20.4019 946.999 20.5004C946.999 20.599 947.019 20.6965 947.056 20.7876C947.094 20.8786 947.149 20.9614 947.219 21.031C947.289 21.1007 947.371 21.156 947.463 21.1937C947.554 21.2314 947.651 21.2508 947.75 21.2508C947.848 21.2508 947.946 21.2314 948.037 21.1937C948.128 21.156 948.211 21.1007 948.28 21.031L950.75 18.5607L953.219 21.031C953.289 21.1007 953.371 21.156 953.463 21.1937C953.554 21.2314 953.651 21.2508 953.75 21.2508C953.848 21.2508 953.946 21.2314 954.037 21.1937C954.128 21.156 954.211 21.1007 954.28 21.031C954.35 20.9614 954.405 20.8786 954.443 20.7876C954.481 20.6965 954.5 20.599 954.5 20.5004C954.5 20.4019 954.481 20.3043 954.443 20.2132C954.405 20.1222 954.35 20.0395 954.28 19.9698L951.81 17.5004Z" fill="#3F3F3F"/>
</g>
<defs>
<clipPath id="clip0_2431_4816">
<rect x="0.5" width="221" height="35" rx="8" fill="white"/>
</clipPath>
<clipPath id="clip1_2431_4816">
<rect x="249.5" width="221" height="35" rx="8" fill="white"/>
</clipPath>
<clipPath id="clip2_2431_4816">
<rect x="498.5" width="221" height="35" rx="8" fill="white"/>
</clipPath>
<clipPath id="clip3_2431_4816">
<rect x="747.5" width="221" height="35" rx="8" fill="white"/>
</clipPath>
</defs>
</svg>
