<svg width="16" height="27" viewBox="0 0 16 27" fill="none" xmlns="http://www.w3.org/2000/svg">
<path d="M14.6939 23.5449C15.0109 23.8619 15.189 24.2919 15.189 24.7402C15.189 25.1886 15.0109 25.6185 14.6939 25.9355C14.3769 26.2526 13.9469 26.4307 13.4986 26.4307C13.0503 26.4307 12.6203 26.2526 12.3033 25.9355L1.05328 14.6855C0.895956 14.5288 0.771132 14.3425 0.68596 14.1374C0.600788 13.9322 0.556946 13.7123 0.556946 13.4902C0.556946 13.2681 0.600788 13.0482 0.68596 12.8431C0.771132 12.638 0.895956 12.4517 1.05328 12.2949L12.3033 1.04492C12.6203 0.727902 13.0503 0.549805 13.4986 0.549805C13.9469 0.549805 14.3769 0.727903 14.6939 1.04492C15.0109 1.36194 15.189 1.7919 15.189 2.24023C15.189 2.68856 15.0109 3.11853 14.6939 3.43554L4.64062 13.4888L14.6939 23.5449Z" fill="#6100FF"/>
</svg>
